<?xml version="1.0" encoding="UTF-8" standalone="no"?>
<!-- Created with Inkscape (http://www.inkscape.org/) -->

<svg
   xmlns:dc="http://purl.org/dc/elements/1.1/"
   xmlns:cc="http://creativecommons.org/ns#"
   xmlns:rdf="http://www.w3.org/1999/02/22-rdf-syntax-ns#"
   xmlns:svg="http://www.w3.org/2000/svg"
   xmlns="http://www.w3.org/2000/svg"
   xmlns:xlink="http://www.w3.org/1999/xlink"
   xmlns:sodipodi="http://sodipodi.sourceforge.net/DTD/sodipodi-0.dtd"
   xmlns:inkscape="http://www.inkscape.org/namespaces/inkscape"
   width="884.62354"
   height="357.6853"
   id="svg4294"
   version="1.1"
   inkscape:version="0.48.4 r9939"
   sodipodi:docname="New document 2">
  <defs
     id="defs4296">
    <linearGradient
       inkscape:collect="always"
       xlink:href="#linearGradient-2"
       id="linearGradient3844"
       gradientUnits="userSpaceOnUse"
       x1="57"
       y1="-4.7077638e-030"
       x2="57"
       y2="114" />
    <linearGradient
       id="linearGradient-2"
       y2="114"
       x2="57"
       y1="-4.7077638e-030"
       x1="57"
       gradientUnits="userSpaceOnUse">
      <stop
         id="stop3785"
         offset="0%"
         stop-color="#F65167" />
      <stop
         id="stop3787"
         offset="100%"
         stop-color="#FFDA69" />
    </linearGradient>
    <mask
       id="mask-4"
       fill="white">
      <use
         height="1"
         width="1"
         y="0"
         x="0"
         xlink:href="#path-3"
         id="use3816" />
    </mask>
  </defs>
  <sodipodi:namedview
     id="base"
     pagecolor="#ffffff"
     bordercolor="#666666"
     borderopacity="1.0"
     inkscape:pageopacity="0.0"
     inkscape:pageshadow="2"
     inkscape:zoom="0.24748737"
     inkscape:cx="814.76744"
     inkscape:cy="75.745457"
     inkscape:document-units="px"
     inkscape:current-layer="layer1"
     showgrid="false"
     fit-margin-top="0"
     fit-margin-left="0"
     fit-margin-right="0"
     fit-margin-bottom="0"
     inkscape:window-width="1366"
     inkscape:window-height="705"
     inkscape:window-x="-8"
     inkscape:window-y="-8"
     inkscape:window-maximized="1" />
  <metadata
     id="metadata4299">
    <rdf:RDF>
      <cc:Work
         rdf:about="">
        <dc:format>image/svg+xml</dc:format>
        <dc:type
           rdf:resource="http://purl.org/dc/dcmitype/StillImage" />
        <dc:title></dc:title>
      </cc:Work>
    </rdf:RDF>
  </metadata>
  <g
     inkscape:label="Layer 1"
     inkscape:groupmode="layer"
     id="layer1"
     transform="translate(165.16892,-410.66238)">
    <path
       inkscape:export-ydpi="51.189892"
       inkscape:export-xdpi="51.189892"
       inkscape:export-filename="C:\Users\Michael\Pictures\Inkscape\Driven\fb_mcd.png"
       id="path4080"
       d="m 573.7784,617.55237 c -41.6416,0 -75.3972,33.7576 -75.3972,75.3981 0,41.6406 33.7566,75.39722 75.3972,75.39722 41.6405,0 75.3971,-33.75762 75.3971,-75.39722 0,-41.6415 -33.7566,-75.3981 -75.3971,-75.3981 z"
       style="fill:#323232"
       inkscape:connector-curvature="0" />
    <path
       inkscape:export-ydpi="51.189892"
       inkscape:export-xdpi="51.189892"
       inkscape:export-filename="C:\Users\Michael\Pictures\Inkscape\Driven\fb_mcd.png"
       id="path4083"
       d="m 573.7784,746.80593 c -29.7437,0 -53.8554,-24.11176 -53.8554,-53.85446 0,-29.7436 24.1117,-53.8554 53.8554,-53.8554 29.7436,0 53.8554,24.1118 53.8554,53.8554 0,29.7417 -24.1118,53.85446 -53.8554,53.85446 z"
       style="fill:#ffffff"
       inkscape:connector-curvature="0" />
    <path
       inkscape:export-ydpi="51.189892"
       inkscape:export-xdpi="51.189892"
       inkscape:export-filename="C:\Users\Michael\Pictures\Inkscape\Driven\fb_mcd.png"
       id="path4085"
       d="m 29.8413,617.55237 c -41.6415,0 -75.3981,33.7576 -75.3981,75.3981 0,41.6406 33.7566,75.39722 75.3981,75.39722 41.6406,0 75.3972,-33.75762 75.3972,-75.39722 0,-41.6415 -33.7556,-75.3981 -75.3972,-75.3981 z"
       style="fill:#323232"
       inkscape:connector-curvature="0" />
    <path
       inkscape:export-ydpi="51.189892"
       inkscape:export-xdpi="51.189892"
       inkscape:export-filename="C:\Users\Michael\Pictures\Inkscape\Driven\fb_mcd.png"
       id="path4087"
       d="m 29.8413,746.80593 c -29.7436,0 -53.8554,-24.11176 -53.8554,-53.85446 0,-29.7436 24.1118,-53.8554 53.8554,-53.8554 29.7437,0 53.8544,24.1118 53.8544,53.8554 0,29.7417 -24.1107,53.85446 -53.8544,53.85446 z"
       style="fill:#ffffff"
       inkscape:connector-curvature="0" />
    <path
       inkscape:export-ydpi="51.189892"
       inkscape:export-xdpi="51.189892"
       inkscape:export-filename="C:\Users\Michael\Pictures\Inkscape\Driven\fb_mcd.png"
       id="path4089"
       d="m 29.8413,686.04357 c -3.8149,0 -6.9069,3.092 -6.9069,6.9069 0,3.814 3.092,6.906 6.9069,6.906 3.814,0 6.907,-3.092 6.907,-6.906 0,-3.8149 -3.092,-6.9069 -6.907,-6.9069 z"
       style="fill:#323232"
       inkscape:connector-curvature="0" />
    <path
       inkscape:export-ydpi="51.189892"
       inkscape:export-xdpi="51.189892"
       inkscape:export-filename="C:\Users\Michael\Pictures\Inkscape\Driven\fb_mcd.png"
       id="path4091"
       d="m 29.8413,705.64237 c -1.6169,0 -2.9269,1.312 -2.9269,2.928 0,1.617 1.311,2.9279 2.9269,2.9279 1.617,0 2.928,-1.3109 2.928,-2.9279 0,-1.616 -1.311,-2.928 -2.928,-2.928 z"
       style="fill:#323232"
       inkscape:connector-curvature="0" />
    <path
       inkscape:export-ydpi="51.189892"
       inkscape:export-xdpi="51.189892"
       inkscape:export-filename="C:\Users\Michael\Pictures\Inkscape\Driven\fb_mcd.png"
       id="path4093"
       d="m 50.6561,702.79237 16.7668,16.7679 c 3.909,-5.51 6.6349,-11.9169 7.8119,-18.8518 H 51.5191 c -0.255,0.711 -0.542,1.4069 -0.863,2.0839 z"
       style="fill:#323232"
       inkscape:connector-curvature="0" />
    <path
       inkscape:export-ydpi="51.189892"
       inkscape:export-xdpi="51.189892"
       inkscape:export-filename="C:\Users\Michael\Pictures\Inkscape\Driven\fb_mcd.png"
       id="path4095"
       d="m 37.6002,714.63027 v 23.7127 c 6.935,-1.1769 13.3389,-3.9059 18.8498,-7.8129 l -16.7678,-16.7678 c -0.677,0.321 -1.371,0.613 -2.082,0.868 z"
       style="fill:#323232"
       inkscape:connector-curvature="0" />
    <path
       inkscape:export-ydpi="51.189892"
       inkscape:export-xdpi="51.189892"
       inkscape:export-filename="C:\Users\Michael\Pictures\Inkscape\Driven\fb_mcd.png"
       id="path4097"
       d="m 50.6541,683.10867 c 0.321,0.6769 0.611,1.3709 0.866,2.0829 h 23.7137 c -1.177,-6.9349 -3.9049,-13.3408 -7.8129,-18.8508 l -16.7668,16.7679 z"
       style="fill:#323232"
       inkscape:connector-curvature="0" />
    <path
       inkscape:export-ydpi="51.189892"
       inkscape:export-xdpi="51.189892"
       inkscape:export-filename="C:\Users\Michael\Pictures\Inkscape\Driven\fb_mcd.png"
       id="path4099"
       d="m 20.0014,672.13877 c 0.677,-0.321 1.371,-0.613 2.082,-0.868 v -23.7128 c -6.9339,1.177 -13.3388,3.905 -18.8498,7.813 l 16.7678,16.7678 z"
       style="fill:#323232"
       inkscape:connector-curvature="0" />
    <path
       inkscape:export-ydpi="51.189892"
       inkscape:export-xdpi="51.189892"
       inkscape:export-filename="C:\Users\Michael\Pictures\Inkscape\Driven\fb_mcd.png"
       id="path4105"
       d="m 3.2336,730.53007 c 5.51,3.908 11.9159,6.636 18.8508,7.8129 v -23.7127 c -0.712,-0.255 -1.406,-0.546 -2.084,-0.867 l -16.7668,16.7668 z"
       style="fill:#323232"
       inkscape:connector-curvature="0" />
    <path
       inkscape:export-ydpi="51.189892"
       inkscape:export-xdpi="51.189892"
       inkscape:export-filename="C:\Users\Michael\Pictures\Inkscape\Driven\fb_mcd.png"
       id="path4107"
       d="m 42.5352,692.94847 c 0,1.617 1.311,2.928 2.928,2.928 1.6169,0 2.9279,-1.311 2.9279,-2.928 0,-1.6159 -1.311,-2.9269 -2.9279,-2.9269 -1.617,0 -2.928,1.311 -2.928,2.9269 z"
       style="fill:#323232"
       inkscape:connector-curvature="0" />
    <path
       inkscape:export-ydpi="51.189892"
       inkscape:export-xdpi="51.189892"
       inkscape:export-filename="C:\Users\Michael\Pictures\Inkscape\Driven\fb_mcd.png"
       id="path4109"
       d="m 17.1475,692.94847 c 0,-1.6159 -1.311,-2.9269 -2.928,-2.9269 -1.617,0 -2.928,1.311 -2.928,2.9269 0,1.617 1.311,2.928 2.928,2.928 1.617,0 2.928,-1.311 2.928,-2.928 z"
       style="fill:#323232"
       inkscape:connector-curvature="0" />
    <path
       inkscape:export-ydpi="51.189892"
       inkscape:export-xdpi="51.189892"
       inkscape:export-filename="C:\Users\Michael\Pictures\Inkscape\Driven\fb_mcd.png"
       id="path4112"
       d="m 56.45,655.36997 c -5.5099,-3.908 -11.9158,-6.636 -18.8498,-7.813 v 23.7128 c 0.711,0.255 1.406,0.546 2.083,0.866 L 56.45,655.36997 z"
       style="fill:#323232"
       inkscape:connector-curvature="0" />
    <path
       inkscape:export-ydpi="51.189892"
       inkscape:export-xdpi="51.189892"
       inkscape:export-filename="C:\Users\Michael\Pictures\Inkscape\Driven\fb_mcd.png"
       id="path4114"
       d="m 29.8413,680.25567 c 1.617,0 2.928,-1.312 2.928,-2.928 0,-1.617 -1.311,-2.928 -2.928,-2.928 -1.6169,0 -2.9269,1.311 -2.9269,2.928 0,1.616 1.31,2.928 2.9269,2.928 z"
       style="fill:#323232"
       inkscape:connector-curvature="0" />
    <path
       inkscape:export-ydpi="51.189892"
       inkscape:export-xdpi="51.189892"
       inkscape:export-filename="C:\Users\Michael\Pictures\Inkscape\Driven\fb_mcd.png"
       id="path4116"
       d="m 8.1626,700.70847 h -23.7138 c 1.177,6.9349 3.904,13.3408 7.8129,18.8508 l 16.7679,-16.7679 c -0.322,-0.678 -0.612,-1.3719 -0.867,-2.0829 z"
       style="fill:#323232"
       inkscape:connector-curvature="0" />
    <path
       inkscape:export-ydpi="51.189892"
       inkscape:export-xdpi="51.189892"
       inkscape:export-filename="C:\Users\Michael\Pictures\Inkscape\Driven\fb_mcd.png"
       id="path4118"
       d="m 9.0266,683.10667 -16.7669,-16.7669 c -3.9089,5.51 -6.6349,11.9169 -7.8119,18.8518 H 8.1626 c 0.257,-0.712 0.544,-1.408 0.864,-2.0849 z"
       style="fill:#323232"
       inkscape:connector-curvature="0" />
    <path
       inkscape:export-ydpi="51.189892"
       inkscape:export-xdpi="51.189892"
       inkscape:export-filename="C:\Users\Michael\Pictures\Inkscape\Driven\fb_mcd.png"
       id="path4120"
       d="m 573.7784,686.04357 c -3.814,0 -6.907,3.092 -6.907,6.9069 0,3.814 3.093,6.906 6.907,6.906 3.8139,0 6.9069,-3.092 6.9069,-6.906 0,-3.8149 -3.093,-6.9069 -6.9069,-6.9069 z"
       style="fill:#323232"
       inkscape:connector-curvature="0" />
    <path
       inkscape:export-ydpi="51.189892"
       inkscape:export-xdpi="51.189892"
       inkscape:export-filename="C:\Users\Michael\Pictures\Inkscape\Driven\fb_mcd.png"
       id="path4122"
       d="m 581.5363,714.63027 v 23.7127 c 6.9349,-1.1769 13.3408,-3.9039 18.8508,-7.8129 l -16.7668,-16.7678 c -0.678,0.322 -1.372,0.613 -2.084,0.868 z"
       style="fill:#323232"
       inkscape:connector-curvature="0" />
    <path
       inkscape:export-ydpi="51.189892"
       inkscape:export-xdpi="51.189892"
       inkscape:export-filename="C:\Users\Michael\Pictures\Inkscape\Driven\fb_mcd.png"
       id="path4124"
       d="m 600.3851,655.37097 c -5.51,-3.908 -11.9149,-6.637 -18.8498,-7.813 v 23.7128 c 0.712,0.255 1.405,0.547 2.082,0.868 l 16.7678,-16.7678 z"
       style="fill:#323232"
       inkscape:connector-curvature="0" />
    <path
       inkscape:export-ydpi="51.189892"
       inkscape:export-xdpi="51.189892"
       inkscape:export-filename="C:\Users\Michael\Pictures\Inkscape\Driven\fb_mcd.png"
       id="path4126"
       d="m 594.5911,702.79137 16.7669,16.7679 c 3.9089,-5.51 6.6369,-11.9159 7.8129,-18.8508 h -23.7138 c -0.254,0.711 -0.545,1.4049 -0.866,2.0829 z"
       style="fill:#323232"
       inkscape:connector-curvature="0" />
    <path
       inkscape:export-ydpi="51.189892"
       inkscape:export-xdpi="51.189892"
       inkscape:export-filename="C:\Users\Michael\Pictures\Inkscape\Driven\fb_mcd.png"
       id="path4128"
       d="m -136.4486,510.25613 c 1.1799,3.77563 2.5363,7.4855 4.0624,11.09375 1.5479,3.65963 3.2727,7.22036 5.1563,10.6875 1.8836,3.46714 3.9261,6.83954 6.125,10.09375 2.1989,3.25421 4.5376,6.38543 7.0313,9.40625 2.4936,3.02082 5.1382,5.92052 7.9062,8.6875 2.768,2.76698 5.6657,5.41356 8.6875,7.90625 3.0218,2.49269 6.1824,4.83331 9.4375,7.03125 3.2551,2.19794 6.6258,4.24225 10.0938,6.125 3.4679,1.88275 7.0271,3.60915 10.6874,5.15625 3.6604,1.5471 7.4178,2.90275 11.25,4.09375 3.8323,1.191 7.7351,2.2168 11.7188,3.03125 3.9837,0.81445 8.0416,1.4263 12.1562,1.84375 4.1147,0.41745 8.275,0.625 12.5,0.625 4.2251,0 8.4169,-0.20755 12.5313,-0.625 4.1144,-0.41745 8.173,-1.0293 12.1563,-1.84375 3.9832,-0.81445 7.887,-1.84025 11.7187,-3.03125 3.8317,-1.191 7.5904,-2.54665 11.25,-4.09375 3.6596,-1.5471 7.2204,-3.2735 10.6875,-5.15625 3.4671,-1.88275 6.8395,-3.92706 10.0938,-6.125 3.2542,-2.19794 6.3854,-4.53856 9.4062,-7.03125 3.0208,-2.49269 5.9205,-5.13927 8.6875,-7.90625 2.767,-2.76698 5.4136,-5.66668 7.9063,-8.6875 2.4926,-3.02082 4.8333,-6.15204 7.0312,-9.40625 2.1979,-3.25421 4.2423,-6.62661 6.125,-10.09375 1.8827,-3.46714 3.6091,-7.02787 5.1562,-10.6875 1.5472,-3.65963 2.9028,-7.41834 4.0938,-11.25 1.191,-3.83166 2.2168,-7.73551 3.0312,-11.71875 0.8145,-3.98324 1.4263,-8.04188 1.8438,-12.15625 0.4175,-4.11437 0.625,-8.3062 0.625,-12.53125 0,-4.22505 -0.2075,-8.38563 -0.625,-12.5 -0.4175,-4.11437 -1.0293,-8.17301 -1.8438,-12.15625 -0.8144,-3.98324 -1.8402,-7.88709 -3.0312,-11.71875 -1.191,-3.83166 -2.5466,-7.59037 -4.0938,-11.25 -1.5471,-3.65963 -3.2735,-7.22036 -5.1562,-10.6875 -0.8632,-1.58957 -1.8819,-3.07902 -2.8125,-4.625 -77.7879,0.02 -134.1221,0.0312 -172.4375,0.0312 -6.0329,1.382 -12.4745,5.40735 -17.0625,8.40625 -8.8709,5.8 -10.0273,16.55445 -14.0313,27.40625 -4.1561,11.26372 -11.6263,31.7772 -18.0624,63.65625 z"
       style="fill:#3b5998;fill-opacity:1"
       inkscape:connector-curvature="0" />
    <path
       inkscape:export-ydpi="51.189892"
       inkscape:export-xdpi="51.189892"
       inkscape:export-filename="C:\Users\Michael\Pictures\Inkscape\Driven\fb_mcd.png"
       id="path4130"
       d="m -138.1674,520.00613 c -5.5712,30.58154 -10.0309,70.01373 -10.0625,120.9375 0,2.757 -8.203,0.3965 -9.75,3.0625 -23.6097,40.7065 16.8257,59.6855 36.5625,59.6875 11.2699,0 70.6562,9.15625 70.6562,9.15625 l 3.5,0 c -1.4809,-6.0539 -2.2812,-12.39625 -2.2812,-18.90625 0,-43.7405 35.4783,-79.1875 79.2188,-79.1875 43.7406,0 79.1874,35.447 79.1874,79.1875 0,6.51 -0.8012,12.85235 -2.2812,18.90625 l 390.9688,0 c -1.592,-6.2339 -2.4376,-12.77 -2.4376,-19.5 0,-43.4035 35.1902,-78.59375 78.5938,-78.59375 43.4045,0 78.5938,35.19025 78.5938,78.59375 0,6.73 -0.8475,13.2661 -2.4376,19.5 l 23.1563,0 c 0,0 10.3593,-5.15025 12.7813,-8.53125 2.309,-3.2239 1.8197,-6.56525 5.4687,-8.53125 16.3768,-8.8299 28.0153,-8.8233 28.0313,-34.75 0,-4.778 0.7902,-11.62085 -1.2188,-14.59375 -2.676,-7.189 -12.3228,-4.57435 -15.2188,-9.15625 16.5898,-23.8248 -2.4612,-68.071 -0.7812,-66 -6.258,-9.7519 -20.3721,-15.00935 -31.5,-19.90625 -15.5588,-6.8469 -32.4682,-14.36275 -49.375,-20.09375 -9.2929,-3.1499 -17.8575,-4.1895 -27.4062,-7.3125 -10.953,-3.581 -20.7783,-8.65625 -21.5313,-8.65625 -86.8301,-83.9101 -121.4184,-94.26485 -155.125,-102.21875 -0.828,-0.195 -41.4375,-2.4375 -41.4375,-2.4375 0,0 -155.935,0.029 -284.75,0.0625 0.441,0.77249 0.9498,1.49875 1.375,2.28125 1.961,3.60868 3.7635,7.31652 5.375,11.125 1.6115,3.80848 3.0406,7.73184 4.2812,11.71875 1.2407,3.98691 2.3078,8.04354 3.1563,12.1875 0.8485,4.14396 1.4713,8.37661 1.9063,12.65625 0.4349,4.27964 0.6562,8.60606 0.6562,13 0,4.39394 -0.2213,8.75161 -0.6562,13.03125 -0.435,4.27964 -1.0578,8.48104 -1.9063,12.625 -0.8485,4.14396 -1.9156,8.23184 -3.1563,12.21875 -1.2406,3.98691 -2.6697,7.87902 -4.2812,11.6875 -1.6115,3.80848 -3.414,7.51632 -5.375,11.125 -1.961,3.60868 -4.086,7.1125 -6.375,10.5 -2.289,3.3875 -4.7168,6.66756 -7.3125,9.8125 -2.5957,3.14494 -5.3377,6.15024 -8.2187,9.03125 -2.8811,2.88101 -5.9176,5.62305 -9.0626,8.21875 -3.1449,2.5957 -6.425,5.05474 -9.8124,7.34375 -3.3875,2.28901 -6.8914,4.41405 -10.5,6.375 -3.6087,1.96095 -7.3166,3.76349 -11.125,5.375 -3.8085,1.61151 -7.7006,3.04055 -11.6876,4.28125 -3.9869,1.2407 -8.0747,2.27649 -12.2187,3.125 -4.144,0.84851 -8.3454,1.50256 -12.625,1.9375 -4.2796,0.43494 -8.6373,0.65625 -13.0313,0.65625 -4.3939,0 -8.7201,-0.22131 -13,-0.65625 -4.2798,-0.43494 -8.5118,-1.08899 -12.6562,-1.9375 -4.1444,-0.84851 -8.2,-1.8843 -12.1875,-3.125 -3.9875,-1.2407 -7.9095,-2.66974 -11.7187,-4.28125 -3.8093,-1.61151 -7.5155,-3.41405 -11.125,-5.375 -3.6096,-1.96095 -7.1116,-4.08599 -10.5,-6.375 -3.3885,-2.28901 -6.6666,-4.74805 -9.8126,-7.34375 -3.1459,-2.5957 -6.1492,-5.33774 -9.0312,-8.21875 -2.882,-2.88101 -5.6221,-5.88631 -8.2188,-9.03125 -2.5966,-3.14494 -5.0538,-6.425 -7.3437,-9.8125 -2.2899,-3.3875 -4.4132,-6.89132 -6.375,-10.5 -1.9618,-3.60868 -3.7628,-7.31652 -5.375,-11.125 -0.4482,-1.05873 -0.7674,-2.17689 -1.1875,-3.25 z"
       style="fill:#3b5998;fill-opacity:1"
       inkscape:connector-curvature="0" />
    <path
       inkscape:export-ydpi="51.189892"
       inkscape:export-xdpi="51.189892"
       inkscape:export-filename="C:\Users\Michael\Pictures\Inkscape\Driven\fb_mcd.png"
       id="path4132"
       d="m -138.1674,520.00613 c 0.4201,1.07311 0.7393,2.19127 1.1875,3.25 1.6122,3.80848 3.4132,7.51632 5.375,11.125 1.9618,3.60868 4.0851,7.1125 6.375,10.5 2.2899,3.3875 4.7471,6.66756 7.3437,9.8125 2.5967,3.14494 5.3368,6.15024 8.2188,9.03125 2.882,2.88101 5.8853,5.62305 9.0312,8.21875 3.146,2.5957 6.4241,5.05474 9.8126,7.34375 3.3884,2.28901 6.8904,4.41405 10.5,6.375 3.6095,1.96095 7.3157,3.76349 11.125,5.375 3.8092,1.61151 7.7312,3.04055 11.7187,4.28125 3.9875,1.2407 8.0431,2.27649 12.1875,3.125 4.1444,0.84851 8.3764,1.50256 12.6562,1.9375 4.2799,0.43494 8.6061,0.65625 13,0.65625 4.394,0 8.7517,-0.22131 13.0313,-0.65625 4.2796,-0.43494 8.481,-1.08899 12.625,-1.9375 4.144,-0.84851 8.2318,-1.8843 12.2187,-3.125 3.987,-1.2407 7.8791,-2.66974 11.6876,-4.28125 3.8084,-1.61151 7.5163,-3.41405 11.125,-5.375 3.6086,-1.96095 7.1125,-4.08599 10.5,-6.375 3.3874,-2.28901 6.6675,-4.74805 9.8124,-7.34375 3.145,-2.5957 6.1815,-5.33774 9.0626,-8.21875 2.881,-2.88101 5.623,-5.88631 8.2187,-9.03125 2.5957,-3.14494 5.0235,-6.425 7.3125,-9.8125 2.289,-3.3875 4.414,-6.89132 6.375,-10.5 1.961,-3.60868 3.7635,-7.31652 5.375,-11.125 1.6115,-3.80848 3.0406,-7.70059 4.2812,-11.6875 1.2407,-3.98691 2.3078,-8.07479 3.1563,-12.21875 0.8485,-4.14396 1.4713,-8.34536 1.9063,-12.625 0.4349,-4.27964 0.6562,-8.63731 0.6562,-13.03125 0,-4.39394 -0.2213,-8.72036 -0.6562,-13 -0.435,-4.27964 -1.0578,-8.51229 -1.9063,-12.65625 -0.8485,-4.14396 -1.9156,-8.20059 -3.1563,-12.1875 -1.2406,-3.98691 -2.6697,-7.91027 -4.2812,-11.71875 -1.6115,-3.80848 -3.414,-7.51632 -5.375,-11.125 -0.4252,-0.7825 -0.934,-1.50876 -1.375,-2.28125 -2.6295,6.8e-4 -3.1904,0.0306 -5.8125,0.0312 0.9306,1.54598 1.9493,3.03543 2.8125,4.625 1.8827,3.46714 3.6091,7.02787 5.1562,10.6875 1.5472,3.65963 2.9028,7.41834 4.0938,11.25 1.191,3.83166 2.2168,7.73551 3.0312,11.71875 0.8145,3.98324 1.4263,8.04188 1.8438,12.15625 0.4175,4.11437 0.625,8.27495 0.625,12.5 0,4.22505 -0.2075,8.41688 -0.625,12.53125 -0.4175,4.11437 -1.0293,8.17301 -1.8438,12.15625 -0.8144,3.98324 -1.8402,7.88709 -3.0312,11.71875 -1.191,3.83166 -2.5466,7.59037 -4.0938,11.25 -1.5471,3.65963 -3.2735,7.22036 -5.1562,10.6875 -1.8827,3.46714 -3.9271,6.83954 -6.125,10.09375 -2.1979,3.25421 -4.5386,6.38543 -7.0312,9.40625 -2.4927,3.02082 -5.1393,5.92052 -7.9063,8.6875 -2.767,2.76698 -5.6667,5.41356 -8.6875,7.90625 -3.0208,2.49269 -6.152,4.83331 -9.4062,7.03125 -3.2543,2.19794 -6.6267,4.24225 -10.0938,6.125 -3.4671,1.88275 -7.0279,3.60915 -10.6875,5.15625 -3.6596,1.5471 -7.4183,2.90275 -11.25,4.09375 -3.8317,1.191 -7.7355,2.2168 -11.7187,3.03125 -3.9833,0.81445 -8.0419,1.4263 -12.1563,1.84375 -4.1144,0.41745 -8.3062,0.625 -12.5313,0.625 -4.225,0 -8.3853,-0.20755 -12.5,-0.625 -4.1146,-0.41745 -8.1725,-1.0293 -12.1562,-1.84375 -3.9837,-0.81445 -7.8865,-1.84025 -11.7188,-3.03125 -3.8322,-1.191 -7.5896,-2.54665 -11.25,-4.09375 -3.6603,-1.5471 -7.2195,-3.2735 -10.6874,-5.15625 -3.468,-1.88275 -6.8387,-3.92706 -10.0938,-6.125 -3.2551,-2.19794 -6.4157,-4.53856 -9.4375,-7.03125 -3.0218,-2.49269 -5.9195,-5.13927 -8.6875,-7.90625 -2.768,-2.76698 -5.4126,-5.66668 -7.9062,-8.6875 -2.4937,-3.02082 -4.8324,-6.15204 -7.0313,-9.40625 -2.1989,-3.25421 -4.2414,-6.62661 -6.125,-10.09375 -1.8836,-3.46714 -3.6084,-7.02787 -5.1563,-10.6875 -1.5261,-3.60825 -2.8825,-7.31812 -4.0624,-11.09375 -0.6033,2.98789 -1.1376,6.5599 -1.7188,9.75 z"
       style="fill:#ffffff;fill-opacity:1"
       inkscape:connector-curvature="0" />
    <path
       inkscape:export-ydpi="51.189892"
       inkscape:export-xdpi="51.189892"
       inkscape:export-filename="C:\Users\Michael\Pictures\Inkscape\Driven\fb_mcd.png"
       id="path4134"
       d="m 481.9884,500.58767 c -2.555,3.8809 -7.8039,2.4139 -7.9209,29.8516 -39.5956,-0.405 -117.5797,-1.218 -117.5797,-1.218 0,0 -0.232,-92.8249 -0.589,-94.4339 -0.01,0 -0.014,0 -0.021,0 0.01,-0.036 0.014,-0.034 0.021,0 17.0208,-2.842 48.9704,-4.055 71.2592,1.222 57.9173,16.8048 79.2561,52.4884 91.783,67.7562 -5.99,-0.092 -32.6027,-4.2029 -36.9526,-3.1779 z"
       style="fill:#ffffff"
       inkscape:connector-curvature="0" />
    <path
       inkscape:export-ydpi="51.189892"
       inkscape:export-xdpi="51.189892"
       inkscape:export-filename="C:\Users\Michael\Pictures\Inkscape\Driven\fb_mcd.png"
       id="path4136"
       d="m 563.9365,672.13677 c 0.678,-0.32 1.372,-0.611 2.083,-0.866 v -23.7128 c -6.935,1.177 -13.3399,3.904 -18.8498,7.813 l 16.7668,16.7658 z"
       style="fill:#323232"
       inkscape:connector-curvature="0" />
    <path
       inkscape:export-ydpi="51.189892"
       inkscape:export-xdpi="51.189892"
       inkscape:export-filename="C:\Users\Michael\Pictures\Inkscape\Driven\fb_mcd.png"
       id="path4138"
       d="m 594.5921,683.10667 c 0.321,0.6769 0.608,1.3729 0.863,2.0849 h 23.7158 c -1.177,-6.9349 -3.903,-13.3418 -7.8129,-18.8518 l -16.7659,16.7669 z"
       style="fill:#323232"
       inkscape:connector-curvature="0" />
    <path
       inkscape:export-ydpi="51.189892"
       inkscape:export-xdpi="51.189892"
       inkscape:export-filename="C:\Users\Michael\Pictures\Inkscape\Driven\fb_mcd.png"
       id="path4140"
       d="m 573.7784,705.64237 c -1.617,0 -2.928,1.312 -2.928,2.928 0,1.617 1.311,2.9279 2.928,2.9279 1.617,0 2.9279,-1.3109 2.9279,-2.9279 0,-1.616 -1.3109,-2.928 -2.9279,-2.928 z"
       style="fill:#323232"
       inkscape:connector-curvature="0" />
    <path
       inkscape:export-ydpi="51.189892"
       inkscape:export-xdpi="51.189892"
       inkscape:export-filename="C:\Users\Michael\Pictures\Inkscape\Driven\fb_mcd.png"
       id="path4142"
       d="m 561.0835,692.94847 c 0,-1.6159 -1.311,-2.9269 -2.928,-2.9269 -1.6159,0 -2.9279,1.311 -2.9279,2.9269 0,1.617 1.312,2.928 2.9279,2.928 1.618,0 2.928,-1.311 2.928,-2.928 z"
       style="fill:#323232"
       inkscape:connector-curvature="0" />
    <path
       inkscape:export-ydpi="51.189892"
       inkscape:export-xdpi="51.189892"
       inkscape:export-filename="C:\Users\Michael\Pictures\Inkscape\Driven\fb_mcd.png"
       id="path4144"
       d="m 552.9646,683.10867 -16.7668,-16.7679 c -3.908,5.51 -6.6369,11.9159 -7.8129,18.8508 h 23.7137 c 0.255,-0.712 0.546,-1.406 0.866,-2.0829 z"
       style="fill:#323232"
       inkscape:connector-curvature="0" />
    <path
       inkscape:export-ydpi="51.189892"
       inkscape:export-xdpi="51.189892"
       inkscape:export-filename="C:\Users\Michael\Pictures\Inkscape\Driven\fb_mcd.png"
       id="path4146"
       d="m 586.4722,692.94847 c 0,1.617 1.311,2.928 2.928,2.928 1.616,0 2.928,-1.311 2.928,-2.928 0,-1.6159 -1.312,-2.9269 -2.928,-2.9269 -1.617,0 -2.928,1.311 -2.928,2.9269 z"
       style="fill:#323232"
       inkscape:connector-curvature="0" />
    <path
       inkscape:export-ydpi="51.189892"
       inkscape:export-xdpi="51.189892"
       inkscape:export-filename="C:\Users\Michael\Pictures\Inkscape\Driven\fb_mcd.png"
       id="path4148"
       d="m 573.7784,680.25567 c 1.617,0 2.9279,-1.312 2.9279,-2.928 0,-1.617 -1.3109,-2.928 -2.9279,-2.928 -1.617,0 -2.928,1.311 -2.928,2.928 0,1.616 1.311,2.928 2.928,2.928 z"
       style="fill:#323232"
       inkscape:connector-curvature="0" />
    <path
       inkscape:export-ydpi="51.189892"
       inkscape:export-xdpi="51.189892"
       inkscape:export-filename="C:\Users\Michael\Pictures\Inkscape\Driven\fb_mcd.png"
       id="path4150"
       d="m 547.1697,730.52907 c 5.5109,3.907 11.9148,6.637 18.8498,7.8129 v -23.7117 c -0.711,-0.255 -1.404,-0.547 -2.082,-0.868 l -16.7678,16.7668 z"
       style="fill:#323232"
       inkscape:connector-curvature="0" />
    <path
       inkscape:export-ydpi="51.189892"
       inkscape:export-xdpi="51.189892"
       inkscape:export-filename="C:\Users\Michael\Pictures\Inkscape\Driven\fb_mcd.png"
       id="path4152"
       d="m 552.1006,700.70847 h -23.7157 c 1.177,6.9349 3.9029,13.3418 7.8119,18.8518 l 16.7678,-16.7679 c -0.322,-0.677 -0.609,-1.3729 -0.864,-2.0839 z"
       style="fill:#323232"
       inkscape:connector-curvature="0" />
    <g
       inkscape:export-ydpi="51.189892"
       inkscape:export-xdpi="51.189892"
       inkscape:export-filename="C:\Users\Michael\Pictures\Inkscape\Driven\fb_mcd.png"
       transform="matrix(0.38039674,0,0,0.36439125,-75.4823,433.41399)"
       id="g4154">
      <path
         style="fill:#455c91;fill-opacity:1;stroke:#485c90;stroke-width:1px;stroke-linecap:butt;stroke-linejoin:miter;stroke-opacity:1"
         d="m 148.32837,12.258183 0.51148,40.468748 C 139.20582,73.470668 120.15049,105.28732 106.41827,117.111 l -1.74832,-2.16266 -94.622816,-0.18548 c -4.867954,-0.20751 -10.07083166,5.39331 -9.77588228,9.23338 L 9.5842275,245.24576 c 0.3054465,3.97674 4.5317975,8.95131 8.9513065,8.95131 l 84.268866,0 c 3.29811,0 7.81839,-3.27777 7.95672,-7.3238 l 0.36167,-10.57882 c 2.73594,3.8853 10.14115,9.67465 16.54636,9.67465 l 113.56405,0 c 14.21765,0 36.13574,-15.14638 28.93352,-40.68776 8.14314,-6.51674 12.96348,-17.58562 8.13755,-31.64604 8.53941,-6.97887 14.7503,-20.09866 7.59504,-31.82686 22.75629,-19.06879 7.98909,-45.751128 -9.58422,-45.751128 l -76.49299,0 c 2.86149,-12.512899 7.35244,-25.296812 7.05255,-42.134434 -0.259,-14.541651 -9.91848,-35.734811 -16.81761,-47.0169655 -2.87775,-4.7059927 -29.43796,-13.7753076 -41.72867,5.3522705 z"
         id="path4156"
         inkscape:connector-curvature="0"
         sodipodi:nodetypes="cccccssssscsccccscssc" />
      <path
         style="fill:#6e7fb3;fill-opacity:1;stroke:none"
         d="m 11.173184,126.45996 79.702049,0 0.18622,117.13222 -70.949721,0 z"
         id="path4158"
         inkscape:connector-curvature="0"
         sodipodi:nodetypes="ccccc" />
      <path
         style="fill:#6475ab;fill-opacity:1;stroke:none"
         d="m 19.739292,142.28864 63.128492,0 0,94.22719 -55.121043,0 z"
         id="path4160"
         inkscape:connector-curvature="0" />
      <path
         style="fill:#edf5f7;fill-opacity:1;stroke:none"
         d="m 186.75899,107.05537 c 3.64921,-14.671256 6.3114,-30.988557 8.07649,-46.627735 0.43389,-3.844405 0.41496,-7.165985 -0.16743,-10.35256 C 192.36401,37.46848 187.08817,26.210849 182.1344,14.873884 177.22775,11.01316 167.62341,9.4760389 160.42089,15.332236 l 0,39.789788 c -12.08314,23.668874 -25.7107,46.455226 -42.53857,67.412826 l -15.86184,11.07426 0,92.11143 10.98608,0.0437 c 0,0 14.56542,8.90683 15.33015,8.52447 1.27455,0.63727 113.55636,0.31676 113.55636,0.31676 6.08698,0.12629 28.0463,-15.91487 14.05936,-28.43548 -1.86384,-1.14334 -1.61903,-4.58087 0.12745,-5.72421 8.74227,-1.56926 19.33797,-18.01476 8.26956,-26.67673 -1.88503,-2.10068 -0.53346,-5.3948 1.69689,-5.64049 6.53852,-3.15733 17.73638,-13.72586 7.57043,-26.48742 -2.05123,-1.04464 -2.13969,-3.73769 -0.23305,-5.36371 9.83299,-1.37143 22.28853,-23.77286 1.67128,-29.15647 z"
         id="path4162"
         inkscape:connector-curvature="0"
         sodipodi:nodetypes="cssccccccccccccccccc" />
      <path
         style="fill:#dce4e7;fill-opacity:1;stroke:none"
         d="m 110.12088,225.75216 0,-97.83787 -8.12739,5.51418 0.0374,92.31497 z"
         id="path4164"
         inkscape:connector-curvature="0"
         sodipodi:nodetypes="ccccc" />
      <path
         style="fill:#dce4e7;fill-opacity:1;stroke:none"
         d="m 171.04423,11.399884 9.43165,40.652927 -24.98112,44.354242 c -2.58881,4.596447 0.54072,9.256167 4.26973,9.431647 l 27.08413,1.27455 c 4.13527,-18.693695 9.12553,-41.491663 8.10826,-55.570258 -1.85043,-9.816859 -5.83148,-22.234164 -12.82678,-36.81829 -3.90674,-2.650186 -7.15259,-3.324818 -11.08587,-3.324818 z"
         id="path4166"
         inkscape:connector-curvature="0"
         sodipodi:nodetypes="ccsscccc" />
      <path
         style="fill:#dce4e7;fill-opacity:1;stroke:none"
         d="m 240.38283,106.9937 c 8.87616,8.4377 3.54659,24.33719 -4.2577,29.961 -1.48023,0.8539 -1.79923,2.95596 -0.72099,4.32596 8.60226,9.83425 -2.83579,26.41318 -6.48894,28.11872 -1.18433,1.06435 -1.33243,2.3014 -1.08148,3.60496 9.79729,13.73043 -1.52324,25.16019 -5.40745,27.75822 -1.28492,1.15206 -1.68314,3.14721 -0.72099,5.04695 8.54614,13.45261 -1.35027,22.97883 -6.9946,28.90008 l 27.88679,0.0591 c 5.36229,0.26876 27.86663,-16.0829 12.95219,-28.92578 -1.67504,-1.44239 -0.59452,-5.1696 0.5507,-5.37511 7.38362,-1.32502 20.4154,-16.92644 8.21847,-26.82346 -0.85187,-0.69124 -1.57771,-4.11995 1.67582,-5.55796 10.07726,-4.45399 16.2999,-15.16591 7.6837,-26.54481 -2.29173,-1.29097 -2.00531,-4.09083 -0.20557,-5.2003 16.83502,-5.01504 17.22217,-27.32454 1.5922,-29.28017 z"
         id="path4168"
         inkscape:connector-curvature="0"
         sodipodi:nodetypes="cccccccccsssscccc" />
      <g
         id="g4170">
        <path
           transform="matrix(0.59806884,0,0,0.59806884,30.309966,82.598928)"
           sodipodi:open="true"
           sodipodi:end="12.541589"
           sodipodi:start="6.2585156"
           d="m 80.03736,237.47695 c 0.188395,7.63513 -5.848379,13.97735 -13.483511,14.16575 -7.635132,0.18839 -13.977353,-5.84838 -14.165748,-13.48351 -0.188395,-7.63513 5.848379,-13.97736 13.483511,-14.16575 7.634528,-0.18838 13.976476,5.84746 14.16571,13.48196"
           sodipodi:ry="13.828837"
           sodipodi:rx="13.828837"
           sodipodi:cy="237.81807"
           sodipodi:cx="66.21273"
           id="path4172"
           style="fill:#ffffff;fill-opacity:1;stroke:none"
           sodipodi:type="arc" />
        <path
           transform="translate(-0.24218783,0.04882811)"
           sodipodi:open="true"
           sodipodi:end="12.541589"
           sodipodi:start="6.2585156"
           d="m 69.384446,223.01414 c 0.0143,0.57962 -0.443975,1.06108 -1.023589,1.07538 -0.579615,0.0143 -1.061079,-0.44397 -1.075381,-1.02359 -0.0143,-0.57961 0.443974,-1.06107 1.023589,-1.07538 0.579569,-0.0143 1.061013,0.44391 1.075378,1.02348"
           sodipodi:ry="1.0498047"
           sodipodi:rx="1.0498047"
           sodipodi:cy="223.04004"
           sodipodi:cx="68.334961"
           id="path4174"
           style="fill:#000000;fill-opacity:1;stroke:none"
           sodipodi:type="arc" />
        <path
           sodipodi:type="arc"
           style="fill:#000000;fill-opacity:1;stroke:none"
           id="path4176"
           sodipodi:cx="68.334961"
           sodipodi:cy="223.04004"
           sodipodi:rx="1.0498047"
           sodipodi:ry="1.0498047"
           d="m 69.384446,223.01414 c 0.0143,0.57962 -0.443975,1.06108 -1.023589,1.07538 -0.579615,0.0143 -1.061079,-0.44397 -1.075381,-1.02359 -0.0143,-0.57961 0.443974,-1.06107 1.023589,-1.07538 0.579569,-0.0143 1.061013,0.44391 1.075378,1.02348"
           sodipodi:start="6.2585156"
           sodipodi:end="12.541589"
           sodipodi:open="true"
           transform="translate(3.3466792,0.04882811)" />
        <path
           transform="translate(3.3466792,3.6865236)"
           sodipodi:open="true"
           sodipodi:end="12.541589"
           sodipodi:start="6.2585156"
           d="m 69.384446,223.01414 c 0.0143,0.57962 -0.443975,1.06108 -1.023589,1.07538 -0.579615,0.0143 -1.061079,-0.44397 -1.075381,-1.02359 -0.0143,-0.57961 0.443974,-1.06107 1.023589,-1.07538 0.579569,-0.0143 1.061013,0.44391 1.075378,1.02348"
           sodipodi:ry="1.0498047"
           sodipodi:rx="1.0498047"
           sodipodi:cy="223.04004"
           sodipodi:cx="68.334961"
           id="path4178"
           style="fill:#000000;fill-opacity:1;stroke:none"
           sodipodi:type="arc" />
        <path
           sodipodi:type="arc"
           style="fill:#000000;fill-opacity:1;stroke:none"
           id="path4180"
           sodipodi:cx="68.334961"
           sodipodi:cy="223.04004"
           sodipodi:rx="1.0498047"
           sodipodi:ry="1.0498047"
           d="m 69.384446,223.01414 c 0.0143,0.57962 -0.443975,1.06108 -1.023589,1.07538 -0.579615,0.0143 -1.061079,-0.44397 -1.075381,-1.02359 -0.0143,-0.57961 0.443974,-1.06107 1.023589,-1.07538 0.579569,-0.0143 1.061013,0.44391 1.075378,1.02348"
           sodipodi:start="6.2585156"
           sodipodi:end="12.541589"
           sodipodi:open="true"
           transform="translate(-0.24218783,3.6865236)" />
      </g>
    </g>
    <path
       inkscape:export-ydpi="51.189892"
       inkscape:export-xdpi="51.189892"
       inkscape:export-filename="C:\Users\Michael\Pictures\Inkscape\Driven\fb_mcd.png"
       inkscape:connector-curvature="0"
       id="path4182"
       d="m 583.5168,528.89832 c -14.2966,0 -19.0185,6.54949 -19.0185,17.79883 l 0,8.91572 -9.3919,0 0,13.35728 9.3919,0 0,40.07184 17.3228,0 0,-40.07184 11.7724,0 1.5848,-13.35728 -13.3572,0 0,-7.95044 c 0,-3.58978 0.793,-5.40683 6.3655,-5.40683 l 6.9917,0 0,-13.35728 -11.6615,0 z"
       style="fill:#ffffff" />
    <g
       inkscape:export-ydpi="51.189892"
       inkscape:export-xdpi="51.189892"
       inkscape:export-filename="C:\Users\Michael\Pictures\Inkscape\Driven\fb_mcd.png"
       id="g4184"
       transform="matrix(0.39296196,0,0,0.39296196,75.0889,412.38042)"
       style="fill:none;stroke:none">
      <ellipse
         d="M 114,57 C 114,88.480231 88.480231,114 57,114 25.519769,114 0,88.480231 0,57 0,25.519769 25.519769,0 57,0 c 31.480231,0 57,25.519769 57,57 z"
         style="fill:url(#linearGradient3844)"
         sodipodi:ry="57"
         sodipodi:rx="57"
         sodipodi:cy="57"
         sodipodi:cx="57"
         id="ellipse4186"
         cx="57"
         cy="57"
         rx="57"
         ry="57" />
      <path
         style="fill:#252b39"
         inkscape:connector-curvature="0"
         d="M 56.5,95.5 C 66.717268,95.5 75,94.382353 75,91.588235 75,90.470588 66.717268,87 56.5,87 46.282732,87 38,91.029412 38,91.588235 38,93.748643 46.282732,95.5 56.5,95.5 z"
         id="path4188" />
      <path
         style="fill:#252b39"
         inkscape:connector-curvature="0"
         d="M 86.734002,68.2492 C 87.824864,69.335661 88.5,70.839218 88.5,72.500462 c 0,3.313709 -2.686291,6 -6,6 -3.313709,0 -6,-2.686291 -6,-6 0,-0.958002 0.224521,-1.863564 0.623814,-2.666938 -2.918007,0.235482 -6.028515,0.3054 -9.473326,0.269684 -1.193277,-0.01237 -1.592653,-0.01563 -2.150488,-0.01563 -1.380712,0 -2.5,-1.119288 -2.5,-2.5 0,-1.380711 1.119288,-2.5 2.5,-2.5 0.581845,0 0.99013,0.0033 2.202325,0.01589 12.27494,0.127267 19.75339,-1.125496 30.023855,-6.791959 1.208921,-0.666991 2.72965,-0.22767 3.39664,0.981251 0.66699,1.20892 0.22767,2.729647 -0.98125,3.396637 -4.804503,2.650759 -9.069104,4.417561 -13.407568,5.559794 z m -49.835196,1.629381 c 0.385432,0.792114 0.601656,1.681747 0.601656,2.621881 0,3.313709 -2.686291,6 -6,6 -3.313708,0 -6,-2.686291 -6,-6 0,-1.602554 0.628275,-3.058367 1.65195,-4.134562 -4.495128,-1.13734 -8.888371,-2.933723 -13.859643,-5.676494 -1.208921,-0.66699 -1.648242,-2.187717 -0.981251,-3.396637 0.666991,-1.208921 2.187717,-1.648242 3.396637,-0.981251 10.270465,5.666463 17.748916,6.919226 30.023855,6.791959 1.212196,-0.01257 1.620481,-0.01589 2.202326,-0.01589 1.380711,0 2.5,1.119289 2.5,2.5 0,1.380712 -1.119289,2.5 -2.5,2.5 -0.557836,0 -0.957212,0.0033 -2.150489,0.01563 -3.214347,0.03333 -6.137626,-0.02532 -8.885041,-0.224627 z"
         id="path4190" />
    </g>
    <g
       inkscape:export-ydpi="51.189892"
       inkscape:export-xdpi="51.189892"
       inkscape:export-filename="C:\Users\Michael\Pictures\Inkscape\Driven\fb_mcd.png"
       id="g4192"
       transform="matrix(0.39296196,0,0,0.39296196,80.6368,472.86028)"
       style="fill:none;stroke:none">
      <ellipse
         d="M 114,57 C 114,88.480231 88.480231,114 57,114 25.519769,114 0,88.480231 0,57 0,25.519769 25.519769,0 57,0 c 31.480231,0 57,25.519769 57,57 z"
         style="fill:#ffda69"
         sodipodi:ry="57"
         sodipodi:rx="57"
         sodipodi:cy="57"
         sodipodi:cx="57"
         id="ellipse4194"
         cx="57"
         cy="57"
         rx="57"
         ry="57" />
      <path
         style="fill:#252b39"
         inkscape:connector-curvature="0"
         d="M 73.196631,86.854668 C 69.159632,82.514591 63.509185,80 57.463018,80 51.460895,80 45.847787,82.477927 41.8153,86.762862 c -1.135491,1.206577 -1.077864,3.105197 0.128712,4.240688 1.206577,1.135491 3.105197,1.077864 4.240688,-0.128712 C 49.094791,87.782565 53.132734,86 57.463018,86 c 4.361998,0 8.426936,1.808999 11.340351,4.941139 1.128447,1.213166 3.0267,1.281843 4.239866,0.153396 1.213166,-1.128448 1.281844,-3.026701 0.153396,-4.239867 l 0,0 z"
         id="path4196" />
      <path
         style="fill:#548cff"
         inkscape:connector-curvature="0"
         d="m 100,105 c 0,5.52285 -4.477153,10 -10,10 -5.522847,0 -10,-4.47715 -10,-10 0,-1.61861 0.384557,-3.14741 1.067291,-4.5 L 90,84 98.932709,100.5 C 99.615443,101.85259 100,103.38139 100,105 z"
         id="path4198" />
      <path
         style="fill:#252b39"
         inkscape:connector-curvature="0"
         d="m 27.273579,44.448193 c 2.038669,-0.782571 4.235024,-0.807307 6.256003,-0.111187 1.305441,0.449655 2.728227,-0.244096 3.177882,-1.549537 0.449655,-1.305441 -0.244096,-2.728227 -1.549537,-3.177882 -3.122484,-1.07553 -6.529598,-1.037159 -9.676188,0.170704 -3.459647,1.328034 -6.200909,3.915965 -7.74261,7.204519 -0.586081,1.25015 -0.04775,2.738709 1.202404,3.32479 1.25015,0.58608 2.738709,0.04775 3.324789,-1.202404 0.998495,-2.129857 2.766297,-3.798779 5.007257,-4.659003 z m 59.362196,0.406057 c -2.038669,-0.782572 -4.235024,-0.807307 -6.256003,-0.111187 -1.305441,0.449655 -2.728227,-0.244096 -3.177882,-1.549537 -0.449656,-1.305441 0.244096,-2.728227 1.549537,-3.177882 3.122483,-1.07553 6.529598,-1.037159 9.676187,0.170704 3.459648,1.328034 6.20091,3.915965 7.742611,7.204519 0.58608,1.25015 0.04775,2.738709 -1.202404,3.324789 -1.25015,0.586081 -2.738709,0.04775 -3.324789,-1.202404 -0.998495,-2.129857 -2.766298,-3.798778 -5.007257,-4.659002 z M 82,69 c 3.865993,0 7,-3.565028 7,-7.962714 0,-4.397686 -3.134007,-7.962714 -7,-7.962714 -3.865993,0 -7,3.565028 -7,7.962714 C 75,65.434972 78.134007,69 82,69 z m -50,0 c 3.865993,0 7,-3.565028 7,-7.962714 0,-4.397686 -3.134007,-7.962714 -7,-7.962714 -3.865993,0 -7,3.565028 -7,7.962714 C 25,65.434972 28.134007,69 32,69 z"
         id="path4200" />
    </g>
    <g
       inkscape:export-ydpi="51.189892"
       inkscape:export-xdpi="51.189892"
       inkscape:export-filename="C:\Users\Michael\Pictures\Inkscape\Driven\fb_mcd.png"
       id="g4202"
       transform="matrix(0.39296196,0,0,0.39296196,51.9048,531.02333)"
       style="fill:none;stroke:none">
      <ellipse
         d="M 114,57 C 114,88.480231 88.480231,114 57,114 25.519769,114 0,88.480231 0,57 0,25.519769 25.519769,0 57,0 c 31.480231,0 57,25.519769 57,57 z"
         style="fill:#ffda69"
         sodipodi:ry="57"
         sodipodi:rx="57"
         sodipodi:cy="57"
         sodipodi:cx="57"
         id="ellipse4204"
         cx="57"
         cy="57"
         rx="57"
         ry="57" />
      <ellipse
         d="m 74,79 c 0,12.150264 -7.611159,22 -17,22 -9.388841,0 -17,-9.849736 -17,-22 0,-12.150264 7.611159,-22 17,-22 9.388841,0 17,9.849736 17,22 z"
         style="fill:#252b37"
         sodipodi:ry="22"
         sodipodi:rx="17"
         sodipodi:cy="79"
         sodipodi:cx="57"
         id="ellipse4206"
         cx="57"
         cy="79"
         rx="17"
         ry="22" />
      <path
         style="fill:#252b37"
         inkscape:connector-curvature="0"
         d="m 85.996954,53.825289 c 4.895049,-0.863129 7.969203,-6.633338 6.866316,-12.888123 -1.102887,-6.254784 -5.965175,-10.625584 -10.860224,-9.762455 -4.895049,0.863129 -7.969203,6.633338 -6.866316,12.888123 1.102887,6.254784 5.965175,10.625584 10.860224,9.762455 z M 28.86327,54.213412 c -4.895049,-0.863129 -7.969203,-6.633338 -6.866316,-12.888123 1.102887,-6.254784 5.965175,-10.625585 10.860224,-9.762455 4.895049,0.863129 7.969203,6.633338 6.866316,12.888122 -1.102888,6.254785 -5.965175,10.625585 -10.860224,9.762456 z m 63.689591,-39.29905 c -2.482464,-2.651189 -5.889274,-4.265361 -9.58998,-4.459307 -3.365834,-0.176396 -6.61805,0.839967 -9.255351,2.827758 -1.102597,0.831051 -1.322729,2.398582 -0.491678,3.501178 0.831051,1.102597 2.398582,1.322729 3.501179,0.491678 1.706952,-1.286566 3.803454,-1.941752 5.984171,-1.827466 2.397103,0.125627 4.594108,1.166585 6.201895,2.883647 0.943713,1.007855 2.525771,1.059851 3.533626,0.116138 1.007854,-0.943713 1.059851,-2.525772 0.116138,-3.533626 z m -61.355825,0.974077 c 2.180717,-0.114286 4.277219,0.5409 5.984171,1.827466 1.102597,0.831051 2.670128,0.61092 3.501179,-0.491677 0.831051,-1.102597 0.61092,-2.670128 -0.491677,-3.501179 -2.637302,-1.98779 -5.889517,-3.004153 -9.255352,-2.827757 -3.700706,0.193945 -7.107515,1.808117 -9.589979,4.459306 -0.943714,1.007855 -0.891717,2.589913 0.116137,3.533626 1.007855,0.943714 2.589913,0.891717 3.533626,-0.116137 1.607787,-1.717063 3.804793,-2.758021 6.201895,-2.883648 z"
         id="path4208" />
    </g>
    <g
       inkscape:export-ydpi="51.189892"
       inkscape:export-xdpi="51.189892"
       inkscape:export-filename="C:\Users\Michael\Pictures\Inkscape\Driven\fb_mcd.png"
       id="g4210"
       transform="matrix(0.39296196,0,0,0.39296196,-6.4203,567.89353)"
       style="fill:none;stroke:none">
      <ellipse
         d="M 114,57 C 114,88.480231 88.480231,114 57,114 25.519769,114 0,88.480231 0,57 0,25.519769 25.519769,0 57,0 c 31.480231,0 57,25.519769 57,57 z"
         style="fill:#ffda69"
         sodipodi:ry="57"
         sodipodi:rx="57"
         sodipodi:cy="57"
         sodipodi:cx="57"
         id="ellipse4212"
         cx="57"
         cy="57"
         rx="57"
         ry="57" />
      <g
         id="g4214"
         transform="translate(20,56)">
        <mask
           id="mask4216"
           fill="white">
          <use
             height="1"
             width="1"
             y="0"
             x="0"
             xlink:href="#path-3"
             id="use4218" />
        </mask>
        <use
           height="1"
           width="1"
           y="0"
           x="0"
           style="fill:#252b39"
           xlink:href="#path-3"
           id="use4220" />
        <path
           style="fill:#f55065"
           inkscape:connector-curvature="0"
           d="M 1.7311628e-6,46 C 1.7311628e-6,46 9.0000019,52.999999 35.954929,53 62.909857,53.000001 73,46 73,46 L 35.954929,12 1.7311628e-6,46 z"
           id="path4222"
           mask="url(#mask-4)">
          <g
             transform="translate(36.500001, 32.500000) rotate(-180.000000) translate(-36.500001, -32.500000) "
             id="g4224" />
        </path>
      </g>
      <path
         style="fill:#252b39"
         inkscape:connector-curvature="0"
         d="M 38.258113,34.668655 24.545814,26.429474 c -1.421445,-0.854091 -3.264462,-0.394528 -4.117805,1.025673 -0.851606,1.417312 -0.393281,3.263593 1.027577,4.117331 l 9.82829,5.905432 -9.769145,6.344157 c -1.390772,0.903178 -1.785645,2.761129 -0.883258,4.150684 0.900552,1.386727 2.760895,1.784144 4.151092,0.881339 l 13.416403,-8.712714 c 2.631602,-2.257731 1.389787,-4.673191 0.05915,-5.472721 z m 37.229825,0 13.7123,-8.239181 c 1.421445,-0.854091 3.264462,-0.394528 4.117805,1.025673 0.851606,1.417312 0.393281,3.263593 -1.027577,4.117331 l -9.82829,5.905432 9.769145,6.344157 c 1.390772,0.903178 1.785645,2.761129 0.883258,4.150684 -0.900552,1.386727 -2.760895,1.784144 -4.151092,0.881339 L 75.547084,40.141376 c -2.631602,-2.257731 -1.389788,-4.673191 -0.05915,-5.472721 z"
         id="path4226" />
    </g>
    <g
       inkscape:export-ydpi="51.189892"
       inkscape:export-xdpi="51.189892"
       inkscape:export-filename="C:\Users\Michael\Pictures\Inkscape\Driven\fb_mcd.png"
       id="g4228"
       transform="matrix(0.39296196,0,0,0.39296196,-135.9272,536.05185)"
       style="fill:none;stroke:none">
      <ellipse
         d="M 114,57 C 114,88.480231 88.480231,114 57,114 25.519769,114 0,88.480231 0,57 0,25.519769 25.519769,0 57,0 c 31.480231,0 57,25.519769 57,57 z"
         style="fill:#f55065"
         sodipodi:ry="57"
         sodipodi:rx="57"
         sodipodi:cy="57"
         sodipodi:cx="57"
         id="ellipse4230"
         cx="57"
         cy="57"
         rx="57"
         ry="57" />
      <path
         style="fill:#ffffff"
         inkscape:connector-curvature="0"
         d="M 23.489973,50.188892 C 23.169611,48.844782 23,47.442199 23,46 23,36.058875 31.058875,28 41,28 47.965863,28 54.007546,31.956882 57,37.745596 59.992454,31.956882 66.034137,28 73,28 c 9.941125,0 18,8.058875 18,18 0,1.295676 -0.136898,2.559377 -0.397018,3.777429 C 90.582093,50.012914 90.547885,50.253735 90.5,50.5 87,68.5 57.5,89 57.5,89 c 0,0 -33,-21.5 -34,-38.5 -0.0062,-0.104718 -0.0095,-0.208417 -0.01003,-0.311108 z"
         id="path4232" />
    </g>
    <g
       inkscape:export-ydpi="51.189892"
       inkscape:export-xdpi="51.189892"
       inkscape:export-filename="C:\Users\Michael\Pictures\Inkscape\Driven\fb_mcd.png"
       id="g4234"
       transform="matrix(0.39296196,0,0,0.39296196,-77.892,567.76507)"
       style="fill:none;stroke:none">
      <ellipse
         d="M 114,57 C 114,88.480231 88.480231,114 57,114 25.519769,114 0,88.480231 0,57 0,25.519769 25.519769,0 57,0 c 31.480231,0 57,25.519769 57,57 z"
         style="fill:#548cff"
         sodipodi:ry="57"
         sodipodi:rx="57"
         sodipodi:cy="57"
         sodipodi:cx="57"
         id="ellipse4236"
         cx="57"
         cy="57"
         rx="57"
         ry="57" />
      <path
         style="fill:#ffffff"
         inkscape:connector-curvature="0"
         d="M 78.061538,43.017488 C 78.226559,43.0059 78.393302,43 78.561538,43 c 3.589851,0 6.5,2.686292 6.5,6 0,1.946698 -1.004347,3.676863 -2.560827,4.773065 1.539069,0.886303 2.560827,2.448144 2.560827,4.226935 0,2.176304 -1.529457,4.027859 -3.664525,4.714802 1.596702,0.875036 2.664525,2.466752 2.664525,4.285198 0,2.237284 -1.616369,4.131365 -3.845404,4.769785 1.118787,0.727693 1.845404,1.903527 1.845404,3.230215 0,2.058913 -1.750024,3.754501 -4,3.975587 l 0,0.02441 -29.002999,0 c -2.207483,0 -3.997001,-1.785246 -3.997001,-3.990179 l 0,-29.002401 c 0,-0.808245 0.316006,-1.542022 0.832537,-2.082418 C 48.150304,41.017603 57.536715,32.243001 58,29 c 0.5,-3.5 1.849338,-9 4.071301,-9 l 0.66817,0 c 2.939297,0 5.570004,2.37979 5.741381,5.304093 0,0 1.580687,11.630588 -4.419313,17.695907 l 13.999999,0 0,0.01749 z M 26,50.990179 C 26,48.786464 27.78733,47 29.993102,47 l 6.013796,0 C 38.212227,47 40,48.785246 40,50.990179 l 0,28.019642 C 40,81.213536 38.21267,83 36.006898,83 l -6.013796,0 C 27.787773,83 26,81.214754 26,79.009821 l 0,-28.019642 z"
         id="path4238" />
    </g>
    <g
       inkscape:export-ydpi="51.189892"
       inkscape:export-xdpi="51.189892"
       inkscape:export-filename="C:\Users\Michael\Pictures\Inkscape\Driven\fb_mcd.png"
       style="fill:#ffffff"
       transform="matrix(0.14186068,0,0,0.14186068,401.6179,640.84138)"
       id="g4240">
      <path
         style="fill:#ffffff"
         inkscape:connector-curvature="0"
         d="m 357.275,125.525 c -2.209,-3.986 -9.498,-11.837 -13.977,-13.325 -5.979,-0.921 -2.398,4.413 -2.398,6.7 -1.543,1.157 -3.941,2.454 -5.102,4 -0.699,0.6 1.704,6.103 6.337,4.335 4.633,-1.768 1.964,1.799 5.164,8.865 3.2,7.066 9.607,7.207 12.49,5.067 3.655,-2.712 -0.503,-12.012 -2.514,-15.642 z"
         id="path4242" />
      <path
         style="fill:#ffffff"
         inkscape:connector-curvature="0"
         d="m 375.8,170.6 c -0.001,0.006 -0.004,0.011 -0.005,0.017 0,0.012 0.002,0.012 0.005,-0.017 z"
         id="path4245" />
      <path
         style="fill:#ffffff"
         inkscape:connector-curvature="0"
         d="m 434.6,197.1 c 0.4,0 -1.8,-0.4 0,0 l 0,0 z"
         id="path4247" />
      <path
         style="fill:#ffffff"
         inkscape:connector-curvature="0"
         d="M 256,32 C 132.3,32 32,132.3 32,256 32,379.701 132.3,480 256,480 379.701,480 480,379.701 480,256 480,132.3 379.701,32 256,32 z m -82.601,397.424 c -5.515,-3.133 -9.374,-7.56 -10.961,-15.929 -3.947,-20.808 -0.303,-32.067 17.962,-44.245 8.604,-5.736 10.022,-12.672 16.9,-19.55 1.685,-2.14 6.211,-10.374 9.2,-10.8 3.637,-0.779 13.709,-2.527 15.7,-6.5 3.79,-5.146 12.127,-27.398 15.8,-29.602 5.997,-3.925 14.419,-15.96 8.3,-23.1 -7.021,-8.643 -16.799,-8.766 -25.9,-13.301 -8.015,-4.008 -11.574,-22.281 -17.7,-28.601 -11.912,-12.136 -29.999,-19.199 -45,-26.7 -8.116,-3.25 -7.344,-4.256 -13.7,2.1 -8.162,8.162 -20.093,-2.067 -21.3,-10.5 -0.09,-2.802 -3.296,-18.216 -1.4,-19.4 17.956,-11.225 -8.328,-8.64 -10.5,-13.8 -5.355,-14.993 13.008,-26.86 25.4,-28.1 13.885,-1.738 16.784,21.895 22.1,19.9 2.556,-1.276 2.566,-12.394 2.9,-14.8 1.267,-8.029 3.588,-9.273 11.4,-12.175 9.098,-3.379 16.063,-7.617 25.7,-9.225 11.006,-3.195 20.317,-1.533 28.8,-8.6 3.888,-2.915 6.704,1.58 10.4,2.4 7.999,1.599 9.7,-11.1 9.7,-15.9 -0.034,-4.665 1.265,-8.63 -4.7,-13.6 -7.806,-6.069 -19.029,-0.869 -25.3,5.4 -7.574,7.035 -16.357,6.55 -13.8,-5.6 0.634,-4.433 10.209,-9.587 14,-12 3.7,-2.222 5.904,2.522 10.4,1.4 6.579,-1.463 9.034,4.735 16.8,4.8 3.233,-0.731 14.796,-6.881 8.614,-19.366 C 254.143,64.021 255.07,64 256,64 c 1.855,0 3.707,0.034 5.555,0.086 2.805,8.881 -5.965,16.443 -1.555,27.614 8.79,21.475 15.992,3.014 24.7,-7 2.849,-2.849 4.633,-2.211 9.3,-3.1 2.896,-0.483 7.055,-9.27 8.393,-11.982 20.058,4.956 39.121,13.127 56.567,24.255 -7.447,0.792 -9.348,-1.396 -9.234,7.377 0.042,3.317 0.297,13.319 5.274,14.15 8.277,0.975 6.781,6.832 14.551,7.85 7.443,0.976 2.816,7.553 5.851,14.05 3.393,10.227 -19.806,13.302 -24.302,14.8 -13.64,4.554 6.34,24.41 15.2,22.3 2.817,-0.704 12.215,-1.902 12.867,-5.067 -0.011,-0.323 -1.836,-11.012 -0.867,-12.233 1.533,-1.934 5.123,-2.946 10.776,0.255 13.374,7.573 20.146,25.7 35.897,29.295 2.146,0.489 5.86,-0.15 8.494,2.033 2.231,3.015 7.92,8.416 1.131,8.416 -9.017,-2.003 -13.78,0.859 -21.198,-4.874 -7.733,-5.977 -12.543,-10.891 -22.75,-11.076 -8.79,-0.159 -16.68,-3.819 -25.738,-2.35 -5.05,0.819 -10.038,2.811 -14.912,4.3 -4.617,1.538 -5.51,9.765 -10.2,10.7 -19.467,4.581 -15.261,23.169 -18.773,37.913 -1.351,5.662 -6.025,21.003 -0.926,26.087 9.12,8.854 19.783,21.035 33.176,22.963 7.206,1.037 22.954,-4.576 27.823,2.737 2.062,4.104 7.447,-3.03 8.9,0.601 3.663,10.988 -4.263,18.186 -4.337,28.551 -0.11,15.203 9.178,20.57 -3.263,34.148 -13.642,13.607 -4.333,30.788 -11.9,47 -4.042,8.337 -4.808,19.894 -10.872,23.777 -13.321,8.532 -27.7,15.399 -42.714,20.384 -26.627,8.838 -55.155,11.672 -83.017,8.456 -14.619,-1.688 -29.041,-5.057 -42.88,-10.065 -3.769,-1.363 -7.28,-2.505 -10.472,-3.704 -2.402,-1.028 -4.786,-2.097 -7.146,-3.223 z m -41.7,-27.095 c -0.468,-0.397 -0.935,-0.796 -1.399,-1.198 -3.444,-2.992 -6.802,-6.113 -10.06,-9.371 -3.388,-3.388 -6.634,-6.881 -9.734,-10.471 -0.035,-0.041 -0.07,-0.082 -0.105,-0.123 -0.637,-0.738 -1.257,-1.486 -1.882,-2.234 C 56.834,316.471 49.259,225.004 92.6,155.1 c 6.078,6.078 -4.101,18.024 7.5,26 5.124,3.606 10.021,2.159 9,8.8 -0.993,6.449 5.355,6.335 6.3,12 2.842,12.429 19.207,18.642 9.9,32.6 -9.118,12.625 -16.992,26.729 -10.1,42.8 2.254,5.86 7.919,11.858 12.222,16.244 7.813,7.966 7.377,3.188 7.377,13.256 -0.156,4.373 5.261,8.897 4.7,11.7 -1.001,8.011 -2.904,15.93 -3.9,23.9 -1.792,28.638 -0.129,56.662 21.3,78.1 -7.969,-4.806 -15.636,-10.249 -22.968,-16.29 -0.748,-0.619 -1.491,-1.249 -2.232,-1.881 z"
         id="path4249" />
    </g>
    <g
       inkscape:export-ydpi="51.189892"
       inkscape:export-xdpi="51.189892"
       inkscape:export-filename="C:\Users\Michael\Pictures\Inkscape\Driven\fb_mcd.png"
       style="fill:#ffffff"
       transform="matrix(0.15071413,0,0,0.15071413,278.6222,642.03353)"
       id="g4251">
      <path
         style="fill:#ffffff"
         inkscape:connector-curvature="0"
         d="M 391.553,64 H 57.607 C 53.131,64 48,67.745 48,72.159 v 214.217 c 0,4.413 5.131,8.624 9.607,8.624 H 115 v 88.894 L 205.128,295 h 186.425 c 4.477,0 7.447,-4.211 7.447,-8.624 V 72.159 C 399,67.745 396.029,64 391.553,64 z"
         id="path4253" />
      <path
         style="fill:#ffffff"
         inkscape:connector-curvature="0"
         d="M 456.396,127 H 424 V 293.57 C 424,309.557 417.085,320 398.848,320 H 218.096 l -38.905,39 H 308.879 L 399,448 v -89 h 57.396 c 4.478,0 7.604,-4.262 7.604,-8.682 V 136.103 C 464,131.689 460.874,127 456.396,127 z"
         id="path4255" />
    </g>
    <g
       inkscape:export-ydpi="51.189892"
       inkscape:export-xdpi="51.189892"
       inkscape:export-filename="C:\Users\Michael\Pictures\Inkscape\Driven\fb_mcd.png"
       style="fill:#ffffff"
       transform="matrix(0.16104316,0,0,0.16104316,135.249,634.99613)"
       id="g4257">
      <path
         style="fill:#ffffff"
         inkscape:connector-curvature="0"
         d="m 425.3,324.8 c -41.4,-15.7 -38.9,-9.4 -38.9,-38.5 0,-18.8 9.3,-11.9 15.2,-47.7 2.3,-14.1 4.2,-4.7 9.1,-27.3 2.6,-11.8 -1.8,-12.7 -1.2,-18.3 0.5,-5.6 1,-10.7 2,-22.2 1.2,-14.4 -11.6,-52 -57.4,-52 -45.8,0 -58.6,37.6 -57.4,52 0.9,11.6 1.5,16.6 2,22.2 0.5,5.6 -3.8,6.5 -1.2,18.3 4.9,22.6 6.8,13.1 9.1,27.3 5.9,35.8 15.1,29 15.1,47.7 0,13.4 3.1,19 -14.9,27.5 5.4,1.9 11.7,4.2 19.3,7.1 54.4,20.7 53.1,40.8 54.5,50.3 1,6.5 1.5,58.3 1.7,76.8 H 480 c 0,0 0,-80.5 -1.5,-89.9 -1.1,-7.4 -11,-17.2 -53.2,-33.3 z"
         id="path4259" />
      <path
         style="fill:#ffffff"
         inkscape:connector-curvature="0"
         d="m 357,448 c 0,0 0,-14.1 -0.2,-30.4 -0.2,-18.6 -0.7,-40 -1.7,-46.4 -1.5,-9.5 -14.3,-22.2 -68.6,-42.9 -7.5,-2.8 -13.8,-5.1 -19.3,-7.1 -33.3,-11.8 -30.9,-15.7 -30.9,-48 0,-24.3 12,-8.5 19.6,-54.6 3,-18.2 5.4,-6.1 11.7,-35.2 3.4,-15.2 -2.3,-16.4 -1.6,-23.7 0.7,-7.3 1.4,-13.8 2.6,-28.7 1.6,-18.5 -14.9,-67.1 -74.1,-67.1 -59.2,0 -75.6,48.5 -74.1,67.1 1.2,14.9 1.9,21.4 2.7,28.7 0.7,7.3 -5,8.4 -1.6,23.7 6.4,29.1 8.8,17 11.8,35.2 7.6,46.1 19.5,30.3 19.5,54.6 0,37.6 3.3,34.8 -50.2,55.1 C 48.3,349 35.5,361.7 34,371.2 32,383.3 32,448 32,448 H 194.5 357 z"
         id="path4261" />
    </g>
    <rect
       inkscape:export-ydpi="51.189892"
       inkscape:export-xdpi="51.189892"
       inkscape:export-filename="C:\Users\Michael\Pictures\Inkscape\Driven\fb_mcd.png"
       ry="2.8037384"
       rx="2.8037384"
       y="640.01007"
       x="194.09431"
       height="26.504089"
       width="23.4375"
       id="rect4264"
       style="fill:#df1023;fill-opacity:1;stroke:none" />
    <rect
       inkscape:export-ydpi="51.189892"
       inkscape:export-xdpi="51.189892"
       inkscape:export-filename="C:\Users\Michael\Pictures\Inkscape\Driven\fb_mcd.png"
       style="fill:#df1023;fill-opacity:1;stroke:none"
       id="rect4266"
       width="23.4375"
       height="26.504089"
       x="330.04794"
       y="640.01007"
       rx="2.8037384"
       ry="2.8037384" />
    <rect
       inkscape:export-ydpi="51.189892"
       inkscape:export-xdpi="51.189892"
       inkscape:export-filename="C:\Users\Michael\Pictures\Inkscape\Driven\fb_mcd.png"
       ry="2.8037384"
       rx="3.0680773"
       y="640.02118"
       x="454.1915"
       height="26.504089"
       width="25.647209"
       id="rect4268"
       style="fill:#df1023;fill-opacity:1;stroke:none" />
    <flowRoot
       inkscape:export-ydpi="51.189892"
       inkscape:export-xdpi="51.189892"
       inkscape:export-filename="C:\Users\Michael\Pictures\Inkscape\Driven\fb_mcd.png"
       transform="translate(-6033.6206,248.28708)"
       style="font-size:22px;font-style:normal;font-variant:normal;font-weight:normal;font-stretch:normal;line-height:125%;letter-spacing:0px;word-spacing:0px;fill:#ffffff;fill-opacity:1;stroke:none;font-family:Montserrat;-inkscape-font-specification:Montserrat"
       id="flowRoot4270"
       xml:space="preserve"><flowRegion
         id="flowRegion4272"><rect
           style="font-size:22px;fill:#ffffff"
           y="390.90625"
           x="6232.4219"
           height="46.484375"
           width="46.484375"
           id="rect4274" /></flowRegion><flowPara
         id="flowPara4276">3</flowPara></flowRoot>    <flowRoot
       inkscape:export-ydpi="51.189892"
       inkscape:export-xdpi="51.189892"
       inkscape:export-filename="C:\Users\Michael\Pictures\Inkscape\Driven\fb_mcd.png"
       xml:space="preserve"
       id="flowRoot4278"
       style="font-size:22px;font-style:normal;font-variant:normal;font-weight:normal;font-stretch:normal;line-height:125%;letter-spacing:0px;word-spacing:0px;fill:#ffffff;fill-opacity:1;stroke:none;font-family:Montserrat;-inkscape-font-specification:Montserrat"
       transform="translate(-5897.6672,247.73465)"><flowRegion
         id="flowRegion4280"><rect
           id="rect4282"
           width="46.484375"
           height="46.484375"
           x="6232.4219"
           y="390.90625"
           style="font-size:22px;fill:#ffffff" /></flowRegion><flowPara
         id="flowPara4284">8</flowPara></flowRoot>    <flowRoot
       inkscape:export-ydpi="51.189892"
       inkscape:export-xdpi="51.189892"
       inkscape:export-filename="C:\Users\Michael\Pictures\Inkscape\Driven\fb_mcd.png"
       transform="translate(-5776.1896,248.28708)"
       style="font-size:22px;font-style:normal;font-variant:normal;font-weight:normal;font-stretch:normal;line-height:125%;letter-spacing:0px;word-spacing:0px;fill:#ffffff;fill-opacity:1;stroke:none;font-family:Montserrat;-inkscape-font-specification:Montserrat"
       id="flowRoot4286"
       xml:space="preserve"><flowRegion
         id="flowRegion4288"><rect
           style="font-size:22px;fill:#ffffff"
           y="390.90625"
           x="6232.4219"
           height="46.484375"
           width="46.484375"
           id="rect4290" /></flowRegion><flowPara
         id="flowPara4292">16</flowPara></flowRoot>  </g>
</svg>
