<?xml version="1.0" encoding="UTF-8" standalone="no"?>
<svg
   xmlns:dc="http://purl.org/dc/elements/1.1/"
   xmlns:cc="http://creativecommons.org/ns#"
   xmlns:rdf="http://www.w3.org/1999/02/22-rdf-syntax-ns#"
   xmlns:svg="http://www.w3.org/2000/svg"
   xmlns="http://www.w3.org/2000/svg"
   xmlns:xlink="http://www.w3.org/1999/xlink"
   xmlns:sodipodi="http://sodipodi.sourceforge.net/DTD/sodipodi-0.dtd"
   xmlns:inkscape="http://www.inkscape.org/namespaces/inkscape"
   width="448px"
   height="648px"
   viewBox="0 0 448 648"
   version="1.1"
   id="svg2"
   inkscape:version="0.48.4 r9939"
   sodipodi:docname="automaton-drawing.svg">
  <metadata
     id="metadata138">
    <rdf:RDF>
      <cc:Work
         rdf:about="">
        <dc:format>image/svg+xml</dc:format>
        <dc:type
           rdf:resource="http://purl.org/dc/dcmitype/StillImage" />
        <dc:title>Artboard 6 Copy 6</dc:title>
      </cc:Work>
    </rdf:RDF>
  </metadata>
  <sodipodi:namedview
     pagecolor="#ffffff"
     bordercolor="#666666"
     borderopacity="1"
     objecttolerance="10"
     gridtolerance="10"
     guidetolerance="10"
     inkscape:pageopacity="0"
     inkscape:pageshadow="2"
     inkscape:window-width="1366"
     inkscape:window-height="705"
     id="namedview136"
     showgrid="false"
     inkscape:zoom="0.52539062"
     inkscape:cx="216.08597"
     inkscape:cy="457.77101"
     inkscape:window-x="-8"
     inkscape:window-y="-8"
     inkscape:window-maximized="1"
     inkscape:current-layer="Artboard-6-Copy-6" />
  <!-- Generator: Sketch 3.8.1 (29687) - http://www.bohemiancoding.com/sketch -->
  <title
     id="title4">Artboard 6 Copy 6</title>
  <rect
     style="fill:#ffffff;fill-opacity:1;stroke:none"
     id="rect4029"
     width="1748.1621"
     height="617.29437"
     x="-2887.5103"
     y="-201.79437"
     inkscape:export-filename="C:\Users\Michael\Documents\Web\Automaton\img\facebook_banner_4.png"
     inkscape:export-xdpi="71.673592"
     inkscape:export-ydpi="71.673592" />
  <desc
     id="desc6">Created with Sketch.</desc>
  <rect
     style="fill:#c4dbfa;fill-opacity:1;stroke:none;stroke-width:0.72237479999999998;stroke-linejoin:round;stroke-miterlimit:4;stroke-opacity:1;stroke-dasharray:none;stroke-dashoffset:0"
     id="rect3505"
     width="279.27762"
     height="279.27762"
     x="876.34296"
     y="798.2276"
     inkscape:export-filename="C:\Users\Michael\Documents\Web\Automaton\img\twitter_profo.png"
     inkscape:export-xdpi="164.57144"
     inkscape:export-ydpi="164.57144" />
  <defs
     id="defs8">
    <path
       d="M169.467851,0.573812649 C180.979043,-10.904814 158.707353,153.42321 148.734212,171.947307 C139.300004,190.471403 33.5618947,190.471403 24.1098775,171.947307 C14.1189276,153.42321 -8.31074543,-10.904814 3.21148136,0.573812649 C14.3997535,12.0524393 158.290615,12.0524393 169.467851,0.573812649 Z"
       id="path-1" />
    <linearGradient
       x1="50%"
       y1="5.47871492%"
       x2="50%"
       y2="91.400271%"
       id="linearGradient-3">
      <stop
         stop-color="#0B0B0B"
         stop-opacity="0.733214447"
         offset="0%"
         id="stop12" />
      <stop
         stop-color="#FFFFFF"
         stop-opacity="0"
         offset="100%"
         id="stop14" />
    </linearGradient>
    <path
       d="M116.277641,0.695600609 C116.277641,0.695600777 116.277641,12.424992 116.277643,12.3790158 C96.8292065,12.9149747 75.7822849,12.9303002 56.2424322,12.4249924 C56.2424318,12.4249914 56.2424318,0.69560872 56.2424318,0.695600777 C56.2424318,0.695592769 116.277641,0.695600423 116.277641,0.695600609 Z"
       id="path-4" />
    <linearGradient
       x1="2.98381446%"
       y1="-31.5770937%"
       x2="82.2168444%"
       y2="197.837682%"
       id="linearGradient-5">
      <stop
         stop-color="#FFFFFF"
         stop-opacity="0.5"
         offset="0%"
         id="stop18" />
      <stop
         stop-color="#A9A9A9"
         stop-opacity="0.125594429"
         offset="100%"
         id="stop20" />
    </linearGradient>
    <path
       d="M179.5148,78.8014236 C171.053036,65.8613729 65.6945067,65.8613729 57.220831,78.8014236 C48.4706542,91.7414744 34.2762296,149.651885 41.3595086,162.591936 C44.2297542,167.698146 67.4332714,167.285226 95.258464,168.361563 C100.386204,167.285226 98.5941267,160.378689 103.556085,160.378689 L131.711845,160.378689 C136.586373,160.37869 136.260628,167.301101 140.964167,168.369819 C168.884944,167.301101 192.403983,167.711268 195.286754,162.591936 C202.382824,149.651885 188.252944,91.7414744 179.5148,78.8014236 Z"
       id="path-6" />
    <linearGradient
       x1="2.98381446%"
       y1="-31.5770937%"
       x2="104.670155%"
       y2="114.737549%"
       id="linearGradient-7">
      <stop
         stop-color="#FFFFFF"
         stop-opacity="0.5"
         offset="0%"
         id="stop24" />
      <stop
         stop-color="#A9A9A9"
         stop-opacity="0.125594429"
         offset="100%"
         id="stop26" />
    </linearGradient>
    <rect
       id="path-8"
       x="92.4446804"
       y="103.73494"
       width="51.769021"
       height="19.7590361"
       rx="9.87951807" />
    <path
       d="M49.2954458,62.9813375 C49.2954458,60.3919812 42.1343419,58.2928932 33.3006725,58.2928932 L33.3006725,58.2928932 C24.4670032,58.2928932 16.8854459,60.3919811 16.8854459,62.9813374"
       id="path-9" />
    <mask
       id="mask-10"
       maskContentUnits="userSpaceOnUse"
       maskUnits="objectBoundingBox"
       x="0"
       y="0"
       width="32.4099998"
       height="4.68844432"
       fill="white">
      <use
         xlink:href="#path-9"
         id="use31" />
    </mask>
    <path
       d="M49.2954458,62.9813375 C49.2954458,60.3919812 42.1343419,58.2928932 33.3006725,58.2928932 L33.3006725,58.2928932 C24.4670032,58.2928932 16.8854459,60.3919811 16.8854459,62.9813374"
       id="path-11" />
    <mask
       id="mask-12"
       maskContentUnits="userSpaceOnUse"
       maskUnits="objectBoundingBox"
       x="0"
       y="0"
       width="32.4099998"
       height="4.68844432"
       fill="white">
      <use
         xlink:href="#path-11"
         id="use35" />
    </mask>
    <path
       d="M50.9304751,73.4675526 C51.8920663,73.4678498 52.8232624,73.4681464 53.7166887,73.4684364 C56.1946621,73.4692407 57.0464581,69.7141634 57.5436682,67.4053927 C61.5329629,48.8812963 71.5329629,-1.44672799 67.5436682,0.0318986796 C63.5543734,1.51052534 4.91174088,1.51052534 0.922446146,0.0318986796 C-3.06684859,-1.44672799 6.93315141,48.8812963 10.9224461,67.4053927 C11.2874908,69.1004598 12.9092496,73.4705898 14.6417122,73.4684372 C15.5648197,73.4672902 16.6733408,73.4663671 17.9304751,73.4656374 L17.9304751,36.8213246 C17.9304751,31.2973689 22.4153456,26.819318 27.9211171,26.819318 L40.9398331,26.819318 C46.4575123,26.819318 50.9304751,31.2888985 50.9304751,36.8213246 L50.9304751,73.4675526 Z"
       id="path-13" />
    <path
       d="M28.9745724,20.6834187 C19.5882452,21.2193776 9.43044719,21.2347031 2.20569945e-07,20.7293952 C4,10.7299805 -2.84217094e-14,1.15891985e-05 0,3.64548602e-06 C-2.84217094e-14,-4.36210903e-06 28.9745715,3.291814e-06 28.9745715,3.47835898e-06 C28.9745715,3.64548659e-06 25.9700012,10.7299805 28.9745724,20.6834187 Z"
       id="path-15" />
    <linearGradient
       inkscape:collect="always"
       xlink:href="#linearGradient-3"
       id="linearGradient3409"
       x1="38.721249"
       y1="3.0260716"
       x2="38.721249"
       y2="26.181236"
       gradientTransform="scale(2.2277184,0.44888977)"
       gradientUnits="userSpaceOnUse" />
    <linearGradient
       inkscape:collect="always"
       xlink:href="#linearGradient-5"
       id="linearGradient3411"
       x1="35.021823"
       y1="47.588394"
       x2="134.18218"
       y2="334.70162"
       gradientTransform="scale(1.2606624,0.79323379)"
       gradientUnits="userSpaceOnUse" />
    <linearGradient
       inkscape:collect="always"
       xlink:href="#linearGradient-7"
       id="linearGradient3413"
       x1="58.066635"
       y1="157.81095"
       x2="90.588877"
       y2="204.60662"
       gradientTransform="scale(1.6186468,0.61780002)"
       gradientUnits="userSpaceOnUse" />
    <linearGradient
       inkscape:collect="always"
       xlink:href="#linearGradient-7"
       id="linearGradient3488"
       gradientUnits="userSpaceOnUse"
       gradientTransform="scale(1.6186468,0.61780002)"
       x1="58.066635"
       y1="157.81095"
       x2="90.588877"
       y2="204.60662" />
    <linearGradient
       inkscape:collect="always"
       xlink:href="#linearGradient-3"
       id="linearGradient3255"
       x1="38.721249"
       y1="3.0260716"
       x2="38.721249"
       y2="26.181236"
       gradientTransform="scale(2.2277184,0.44888977)"
       gradientUnits="userSpaceOnUse" />
    <linearGradient
       inkscape:collect="always"
       xlink:href="#linearGradient-5"
       id="linearGradient3257"
       x1="35.021823"
       y1="47.588394"
       x2="134.18218"
       y2="334.70162"
       gradientTransform="scale(1.2606624,0.79323379)"
       gradientUnits="userSpaceOnUse" />
    <linearGradient
       inkscape:collect="always"
       xlink:href="#linearGradient-7"
       id="linearGradient3259"
       x1="58.066635"
       y1="157.81095"
       x2="90.588877"
       y2="204.60662"
       gradientTransform="scale(1.6186468,0.61780002)"
       gradientUnits="userSpaceOnUse" />
    <linearGradient
       inkscape:collect="always"
       xlink:href="#linearGradient-3"
       id="linearGradient4187"
       gradientUnits="userSpaceOnUse"
       gradientTransform="scale(2.2277184,0.44888977)"
       x1="38.721249"
       y1="3.0260716"
       x2="38.721249"
       y2="26.181236" />
    <linearGradient
       inkscape:collect="always"
       xlink:href="#linearGradient-5"
       id="linearGradient4189"
       gradientUnits="userSpaceOnUse"
       gradientTransform="scale(1.2606624,0.79323379)"
       x1="35.021823"
       y1="47.588394"
       x2="134.18218"
       y2="334.70162" />
    <linearGradient
       inkscape:collect="always"
       xlink:href="#linearGradient-7"
       id="linearGradient4191"
       gradientUnits="userSpaceOnUse"
       gradientTransform="scale(1.6186468,0.61780002)"
       x1="58.066635"
       y1="157.81095"
       x2="90.588877"
       y2="204.60662" />
    <linearGradient
       inkscape:collect="always"
       xlink:href="#linearGradient-3"
       id="linearGradient4275"
       gradientUnits="userSpaceOnUse"
       gradientTransform="scale(2.2277184,0.44888977)"
       x1="38.721249"
       y1="3.0260716"
       x2="38.721249"
       y2="26.181236" />
    <linearGradient
       inkscape:collect="always"
       xlink:href="#linearGradient-5"
       id="linearGradient4277"
       gradientUnits="userSpaceOnUse"
       gradientTransform="scale(1.2606624,0.79323379)"
       x1="35.021823"
       y1="47.588394"
       x2="134.18218"
       y2="334.70162" />
    <linearGradient
       inkscape:collect="always"
       xlink:href="#linearGradient-7"
       id="linearGradient4279"
       gradientUnits="userSpaceOnUse"
       gradientTransform="scale(1.6186468,0.61780002)"
       x1="58.066635"
       y1="157.81095"
       x2="90.588877"
       y2="204.60662" />
  </defs>
  <g
     id="Page-1"
     stroke="none"
     stroke-width="1"
     fill="none"
     fill-rule="evenodd"
     inkscape:export-filename="C:\Users\Michael\Documents\Web\Automaton\img\autobot.png"
     inkscape:export-xdpi="90"
     inkscape:export-ydpi="90">
    <g
       id="Artboard-6-Copy-6">
      <g
         id="Arm---upper-Copy"
         transform="translate(332.664005, 323.617746) rotate(-389.000000) translate(-332.664005, -323.617746) translate(311.664005, 265.117746)"
         inkscape:export-filename="C:\Users\Michael\Documents\Web\Automaton\img\autobot.png"
         inkscape:export-xdpi="90.129997"
         inkscape:export-ydpi="90.129997">
        <path
           d="M19.5,1 C29.705329,1 37.7993689,9.28108004 37.578457,19.5003392 L35.8891538,97.6465463 C35.6682809,107.864002 28.3325484,116.146886 19.5,116.146886 C10.6693932,116.146886 3.3317581,107.865805 3.11084619,97.6465463 L1.42154299,19.5003392 C1.20067008,9.282884 9.29242711,1 19.5,1 Z"
           id="Rectangle-23"
           fill="#D8D8D8" />
        <path
           d="M38.6101635,17.1088132 C38.8255116,7.65779903 31.3413973,2.27373675e-13 21.8940321,2.27373675e-13 L17.1059679,2.27373675e-13 C7.6586119,2.20268248e-13 0.174551599,7.66057284 0.389871909,17.1103683 L0.776332211,51.071011 C0.916414022,52.8812939 4.79901923,54.6685026 19.5,54.6685026 C33.8040816,54.6685026 37.8656088,52.9764939 38.2021989,51.2175555 L38.6101635,17.1088132 Z"
           id="Combined-Shape"
           fill="#BEBEBE" />
      </g>
      <g
         id="Arm---upper-Copy-2"
         transform="translate(108.964047, 316.376764) rotate(-302.000000) translate(-108.964047, -316.376764) translate(87.964047, 257.876764)"
         inkscape:export-filename="C:\Users\Michael\Documents\Web\Automaton\img\autobot.png"
         inkscape:export-xdpi="90.129997"
         inkscape:export-ydpi="90.129997">
        <path
           d="M19.5,1 C29.705329,1 37.7993689,9.28108004 37.578457,19.5003392 L35.8891538,97.6465463 C35.6682809,107.864002 28.3325484,116.146886 19.5,116.146886 C10.6693932,116.146886 3.3317581,107.865805 3.11084619,97.6465463 L1.42154299,19.5003392 C1.20067008,9.282884 9.29242711,1 19.5,1 Z"
           id="path46"
           fill="#D8D8D8" />
        <path
           d="M38.6101635,17.1088132 C38.8255116,7.65779903 31.3413973,2.27373675e-13 21.8940321,2.27373675e-13 L17.1059679,2.27373675e-13 C7.6586119,2.20268248e-13 0.174551599,7.66057284 0.389871909,17.1103683 L0.776332211,51.071011 C0.916414022,52.8812939 4.79901923,54.6685026 19.5,54.6685026 C33.8040816,54.6685026 37.8656088,52.9764939 38.2021989,51.2175555 L38.6101635,17.1088132 Z"
           id="path48"
           fill="#BEBEBE" />
      </g>
      <g
         id="body-copy"
         transform="translate(139.000000, 255.000000)"
         inkscape:export-filename="C:\Users\Michael\Documents\Web\Automaton\img\autobot.png"
         inkscape:export-xdpi="90.129997"
         inkscape:export-ydpi="90.129997">
        <path
           d="M133.474952,199.897948 C112.747392,210.79871 53.2516961,210.317654 35.8668612,198.454778 C33.7858331,197.069929 32.2857004,195.529971 31.5076095,193.834904 C22.7421083,175.310807 2.04714158,4.98278317 12.2579923,16.4614098 C22.1709781,27.9400365 149.579664,27.9400365 159.488365,16.4614098 C169.694931,4.98278317 149.063545,175.310807 140.304959,193.834904 C139.247012,196.143675 136.852211,198.164689 133.474952,199.897948 Z"
           id="Rectangle-1-Copy-14"
           fill="#D8D8D8" />
        <path
           d="M160.861491,20.4614098 C171.267033,8.98278317 151.242816,170.310807 142.201357,188.834904 C141.108986,191.143675 138.632589,193.164689 135.138843,194.897948 C113.69134,205.79871 52.0979066,205.317654 34.1128172,193.454778 C31.9604429,192.069929 30.4095449,190.529971 29.6061517,188.834904 C20.5576606,170.310807 0.47220664,8.98278317 10.8821054,20.4614098 C20.9867809,31.9400365 150.761173,31.9400365 160.861491,20.4614098 Z"
           id="Rectangle-1-Copy-15"
           fill="#C4C2C2" />
        <g
           id="Group-3"
           transform="translate(0.000000, 11.000000)">
          <mask
             id="mask-2"
             fill="white">
            <use
               xlink:href="#path-1"
               id="use57" />
          </mask>
          <use
             id="Rectangle-1-Copy-12"
             fill="#E2E2E2"
             xlink:href="#path-1" />
          <path
             d="M34.1808488,32.1181806 C36.0247113,35.5968073 131.712452,35.5968073 139.556314,32.1181806 C141.400177,28.639554 128.719312,102.967578 120.87545,121.491675 C113.031587,140.015771 60.705576,140.015771 52.8617135,121.491675 C45.0178511,102.967578 32.3369864,28.639554 34.1808488,32.1181806 Z"
             id="Rectangle-1-Copy-24"
             fill="#ACACAC"
             mask="url(#mask-2)" />
          <path
             d="M33.1690184,28.1197367 C35.0128809,29.5983634 133.700621,29.5983634 140.544484,28.1197367 C142.388346,24.6411101 128.707482,97.9691343 120.863619,116.493231 C113.019757,135.017327 60.6937455,135.017327 52.8498831,116.493231 C45.0060206,97.9691343 31.3251559,26.6411101 33.1690184,28.1197367 Z"
             id="Rectangle-1-Copy-23"
             fill="#C5C5C5"
             mask="url(#mask-2)" />
          <path
             d="M-1,20 C9.50299365,31.4786267 163.897,31.4786267 174.399994,20"
             id="Rectangle-1-Copy-20"
             stroke="#BEBEBE"
             stroke-width="3"
             mask="url(#mask-2)" />
        </g>
        <path
           d="M2.39024002,12.9146699 C-7.68278512,3.69511004 180.682785,3.69511004 170.60976,12.9146699 C160.536735,22.1342297 12.4632652,22.1342297 2.39024002,12.9146699 Z"
           id="Rectangle-1-Copy-11"
           fill="#8C8C8C" />
        <g
           id="Rectangle-1-Copy-13">
          <use
             fill="#BEBEBE"
             xlink:href="#path-4"
             id="use65" />
          <use
             fill="url(#linearGradient-3)"
             xlink:href="#path-4"
             id="use67" />
        </g>
      </g>
      <g
         id="head-copy"
         transform="translate(106.000000, 57.000000)"
         inkscape:export-filename="C:\Users\Michael\Documents\Web\Automaton\img\autobot.png"
         inkscape:export-xdpi="90.129997"
         inkscape:export-ydpi="90.129997">
        <path
           d="M0.375711303,143.108723 C-0.14596973,128.743245 -0.124379045,117.661151 0.440483358,103.356379 C1.79445928,69.0678223 146.987042,101.347988 146.987042,101.347988 L146.987042,145.117115 C146.987042,145.117115 1.64691406,178.113705 0.375711303,143.108723"
           id="Rectangle-1-Copy-10"
           fill="#BEBEBE" />
        <path
           d="M236.61133,103.674409 C237.133011,118.039887 237.111421,129.121982 236.546558,143.426754 C235.192582,177.71531 90,145.435145 90,145.435145 L90,101.666018 C90,101.666018 235.340128,68.6694278 236.61133,103.674409"
           id="Rectangle-1-Copy-9"
           fill="#BEBEBE" />
        <g
           id="Group-4"
           transform="translate(106.000000, 0.000000)">
          <rect
             id="Combined-Shape-Copy-3"
             fill="#D8D8D8"
             x="7"
             y="16"
             width="9.8607659"
             height="19.7590361" />
          <ellipse
             id="Oval-1"
             fill="#DD1021"
             cx="12.3259574"
             cy="12.3493976"
             rx="12.3259574"
             ry="12.3493976"
             d="m 24.651915,12.349398 c 0,6.820384 -5.518519,12.349397 -12.325958,12.349397 C 5.5185191,24.698795 0,19.169782 0,12.349398 0,5.5290137 5.5185191,0 12.325957,0 19.133396,0 24.651915,5.5290137 24.651915,12.349398 z" />
        </g>
        <path
           d="M93.7570814,35.3764258 C111.389923,34.8537527 124.992591,34.8753844 142.550919,35.441321 C184.638255,36.7978718 145.01611,182.266566 145.01611,182.266566 L91.2918903,182.266566 C91.2918903,182.266566 50.7903728,36.650046 93.7570814,35.3764258 Z"
           id="Rectangle-1-Copy-5"
           fill="#BEBEBE" />
        <path
           d="M15.244468,57.4713855 C27.5704254,38.9472892 208.761999,38.9472892 221.087956,57.4713855 C233.413914,75.9954819 233.413914,172.320783 221.087956,190.84488 C208.761999,209.368976 27.5704254,209.368976 15.244468,190.84488 C2.91851065,172.320783 2.91851065,75.9954819 15.244468,57.4713855 Z"
           id="path76"
           fill="#E1E1E1" />
        <path
           d="M179.5148,83.8014236 C171.053036,70.8613729 65.6945067,70.8613729 57.220831,83.8014236 C48.4706542,96.7414744 34.2762296,154.651885 41.3595086,167.591936 C44.2297542,172.698146 67.4332714,172.285226 95.258464,173.361563 C100.386204,172.285226 98.5941267,165.378689 103.556085,165.378689 L131.711845,165.378689 C136.586373,165.37869 136.260628,172.301101 140.964167,173.369819 C168.884944,172.301101 192.403983,172.711268 195.286754,167.591936 C202.382824,154.651885 188.252944,96.7414744 179.5148,83.8014236 Z"
           id="Combined-Shape-Copy-2"
           fill="#BEBEBE" />
        <g
           id="Combined-Shape-Copy-4">
          <use
             fill="#E2EFFF"
             xlink:href="#path-6"
             id="use80" />
          <use
             fill="url(#linearGradient-5)"
             xlink:href="#path-6"
             id="use82" />
        </g>
        <g
           id="Rectangle-3-Copy-2">
          <use
             fill="#EFF6FF"
             xlink:href="#path-8"
             id="use85" />
          <use
             fill="url(#linearGradient-7)"
             xlink:href="#path-8"
             id="use87" />
        </g>
        <rect
           id="Rectangle-3-Copy-3"
           fill="#B3D3FF"
           x="92.4446804"
           y="100.73494"
           width="51.769021"
           height="19.7590361"
           rx="9.87951807" />
      </g>
      <g
         id="Arm---lower-Copy-2"
         transform="translate(303.386935, 400.152864) rotate(-314.000000) translate(-303.386935, -400.152864) translate(273.386935, 320.152864)"
         inkscape:export-filename="C:\Users\Michael\Documents\Web\Automaton\img\autobot.png"
         inkscape:export-xdpi="90.129997"
         inkscape:export-ydpi="90.129997">
        <polygon
           id="polygon91"
           fill="#D8D8D8"
           points="18.9363515 94.0798621 16 20 50.9491273 20 47.1136806 94.0798621" />
        <path
           d="M16.8872221,62.912724 L16.5328537,62.9123326 L15.0754109,20.1870428 C15.0254984,19.6330632 15,19.072044 15,18.5050694 C15,18.3704736 15.001437,18.2362134 15.0042964,18.1023034 L15,17.9763531 L15.0074078,17.9763531 C15.2872758,8.00078553 23.4618308,2.47268872e-12 33.5050694,2.47268872e-12 C43.725137,2.47268872e-12 52.0101387,8.28500176 52.0101387,18.5050694 C52.0101387,19.4292975 51.9423834,20.3377006 51.8115689,21.2255824 L49.9524942,62.9492485 L49.2950622,62.9485223 C49.2348649,60.3742698 42.0969952,58.2928932 33.3006725,58.2928932 C24.5451609,58.2928932 17.0197028,60.3550012 16.8872221,62.912724 Z"
           id="path93"
           fill="#BEBEBE" />
        <path
           d="M33,89.7652761 C25.2680135,89.7652761 19,91.6612266 19,94 C19,96.3387734 25.2680135,98.2347239 33,98.2347239 C40.7319865,98.2347239 47,96.3387734 47,94 C47,91.6612266 40.7319865,89.7652761 33,89.7652761 Z"
           id="Oval-4"
           fill="#DD1021"
           transform="translate(33.000000, 94.000000) rotate(-360.000000) translate(-33.000000, -94.000000) " />
        <use
           id="Oval-4-Copy-3"
           stroke="#979797"
           mask="url(#mask-10)"
           stroke-width="2"
           transform="translate(33.090446, 60.637115) rotate(-360.000000) translate(-33.090446, -60.637115) "
           xlink:href="#path-9" />
        <path
           d="M33,92 C25.2680135,92 19,93.8959505 19,96.2347239 C19,98.5734973 25.2680135,100.469448 33,100.469448 C40.7319865,100.469448 47,98.5734973 47,96.2347239 C47,93.8959505 40.7319865,92 33,92 Z"
           id="Oval-4-Copy"
           fill="#D8D8D8"
           transform="translate(33.000000, 96.234724) rotate(-360.000000) translate(-33.000000, -96.234724) " />
        <path
           d="M34,154.751889 C45.8730295,153.053585 55,142.842652 55,130.5 C55,116.969024 44.0309764,106 30.5,106 C16.9690236,106 6,116.969024 6,130.5 C6,142.842652 15.1269705,153.053585 27,154.751889 L27,146.628044 C19.5684759,145.022902 14,138.411744 14,130.5 C14,121.387302 21.3873016,114 30.5,114 C39.6126984,114 47,121.387302 47,130.5 C47,138.411744 41.4315241,145.022902 34,146.628044 L34,154.751889 Z"
           id="Combined-Shape-Copy"
           fill="#BEBEBE"
           transform="translate(30.500000, 130.375944) rotate(-348.000000) translate(-30.500000, -130.375944) " />
        <path
           d="M33,154.751889 C44.8730295,153.053585 54,142.842652 54,130.5 C54,116.969024 43.0309764,106 29.5,106 C15.9690236,106 5,116.969024 5,130.5 C5,142.842652 14.1269705,153.053585 26,154.751889 L26,146.628044 C18.5684759,145.022902 13,138.411744 13,130.5 C13,121.387302 20.3873016,114 29.5,114 C38.6126984,114 46,121.387302 46,130.5 C46,138.411744 40.4315241,145.022902 33,146.628044 L33,154.751889 Z"
           id="path99"
           fill="#D8D8D8"
           transform="translate(29.500000, 130.375944) rotate(-348.000000) translate(-29.500000, -130.375944) " />
        <path
           d="M31.5035143,117 C31.5035143,117 31.5035143,118.117014 32.9624915,118.117014 C34.4214687,118.117014 34.4214688,117 34.4214688,117 C34.4214688,117 35.9161801,96.631101 35.9247407,96.5144436 C35.9455899,96.2303242 34.6193458,96 32.9624916,96 C31.3056373,96 29.9793932,96.2303242 30.0002425,96.5144436 C30.0210917,96.798563 31.5035143,117 31.5035143,117 Z"
           id="Oval-4-Copy-2"
           fill="#979797"
           transform="translate(32.962492, 107.058507) rotate(-360.000000) translate(-32.962492, -107.058507) " />
      </g>
      <g
         id="Arm---lower-Copy-3"
         transform="translate(74.773685, 273.998251) rotate(-542.000000) translate(-74.773685, -273.998251) translate(44.773685, 193.998251)"
         inkscape:export-filename="C:\Users\Michael\Documents\Web\Automaton\img\autobot.png"
         inkscape:export-xdpi="90.129997"
         inkscape:export-ydpi="90.129997">
        <polygon
           id="polygon103"
           fill="#D8D8D8"
           points="18.9363515 94.0798621 16 20 50.9491273 20 47.1136806 94.0798621" />
        <path
           d="M16.8872221,62.912724 L16.5328537,62.9123326 L15.0754109,20.1870428 C15.0254984,19.6330632 15,19.072044 15,18.5050694 C15,18.3704736 15.001437,18.2362134 15.0042964,18.1023034 L15,17.9763531 L15.0074078,17.9763531 C15.2872758,8.00078553 23.4618308,5.68434189e-14 33.5050694,5.68434189e-14 C43.725137,5.68434189e-14 52.0101387,8.28500176 52.0101387,18.5050694 C52.0101387,19.4292975 51.9423834,20.3377006 51.8115689,21.2255824 L49.9524942,62.9492485 L49.2950622,62.9485223 C49.2348649,60.3742698 42.0969952,58.2928932 33.3006725,58.2928932 C24.5451609,58.2928932 17.0197028,60.3550012 16.8872221,62.912724 Z"
           id="path105"
           fill="#BEBEBE" />
        <path
           d="M33,89.7652761 C25.2680135,89.7652761 19,91.6612266 19,94 C19,96.3387734 25.2680135,98.2347239 33,98.2347239 C40.7319865,98.2347239 47,96.3387734 47,94 C47,91.6612266 40.7319865,89.7652761 33,89.7652761 Z"
           id="path107"
           fill="#DD1021"
           transform="translate(33.000000, 94.000000) rotate(-360.000000) translate(-33.000000, -94.000000) " />
        <use
           id="use109"
           stroke="#979797"
           mask="url(#mask-12)"
           stroke-width="2"
           transform="translate(33.090446, 60.637115) rotate(-360.000000) translate(-33.090446, -60.637115) "
           xlink:href="#path-11" />
        <path
           d="M33,92 C25.2680135,92 19,93.8959505 19,96.2347239 C19,98.5734973 25.2680135,100.469448 33,100.469448 C40.7319865,100.469448 47,98.5734973 47,96.2347239 C47,93.8959505 40.7319865,92 33,92 Z"
           id="path111"
           fill="#D8D8D8"
           transform="translate(33.000000, 96.234724) rotate(-360.000000) translate(-33.000000, -96.234724) " />
        <path
           d="M34,154.751889 C45.8730295,153.053585 55,142.842652 55,130.5 C55,116.969024 44.0309764,106 30.5,106 C16.9690236,106 6,116.969024 6,130.5 C6,142.842652 15.1269705,153.053585 27,154.751889 L27,146.628044 C19.5684759,145.022902 14,138.411744 14,130.5 C14,121.387302 21.3873016,114 30.5,114 C39.6126984,114 47,121.387302 47,130.5 C47,138.411744 41.4315241,145.022902 34,146.628044 L34,154.751889 Z"
           id="path113"
           fill="#BEBEBE"
           transform="translate(30.500000, 130.375944) rotate(-348.000000) translate(-30.500000, -130.375944) " />
        <path
           d="M33,154.751889 C44.8730295,153.053585 54,142.842652 54,130.5 C54,116.969024 43.0309764,106 29.5,106 C15.9690236,106 5,116.969024 5,130.5 C5,142.842652 14.1269705,153.053585 26,154.751889 L26,146.628044 C18.5684759,145.022902 13,138.411744 13,130.5 C13,121.387302 20.3873016,114 29.5,114 C38.6126984,114 46,121.387302 46,130.5 C46,138.411744 40.4315241,145.022902 33,146.628044 L33,154.751889 Z"
           id="path115"
           fill="#D8D8D8"
           transform="translate(29.500000, 130.375944) rotate(-348.000000) translate(-29.500000, -130.375944) " />
        <path
           d="M31.5035143,117 C31.5035143,117 31.5035143,118.117014 32.9624915,118.117014 C34.4214687,118.117014 34.4214688,117 34.4214688,117 C34.4214688,117 35.9161801,96.631101 35.9247407,96.5144436 C35.9455899,96.2303242 34.6193458,96 32.9624916,96 C31.3056373,96 29.9793932,96.2303242 30.0002425,96.5144436 C30.0210917,96.798563 31.5035143,117 31.5035143,117 Z"
           id="path117"
           fill="#979797"
           transform="translate(32.962492, 107.058507) rotate(-360.000000) translate(-32.962492, -107.058507) " />
      </g>
      <g
         id="Group-3-Copy"
         transform="translate(190.000000, 462.000000)"
         inkscape:export-filename="C:\Users\Michael\Documents\Web\Automaton\img\autobot.png"
         inkscape:export-xdpi="90.129997"
         inkscape:export-ydpi="90.129997">
        <rect
           id="Rectangle-29"
           fill="#BEBEBE"
           x="16"
           y="88"
           width="37"
           height="4" />
        <g
           id="Group-2"
           transform="translate(0.000000, 20.000000)">
          <mask
             id="mask-14"
             fill="white">
            <use
               xlink:href="#path-13"
               id="use123" />
          </mask>
          <use
             id="use125"
             fill="#D8D8D8"
             xlink:href="#path-13" />
          <path
             d="M68.7399979,13 C64.5639501,17.6666667 3.17604778,17.6666667 -1,13"
             id="Rectangle-1-Copy-19"
             stroke="#BEBEBE"
             stroke-width="3"
             mask="url(#mask-14)" />
        </g>
        <path
           d="M67.8972356,20.5 C63.9006844,25.1666667 5.15138196,25.1666667 1.15483077,20.5 C-2.84172042,15.8333333 71.8937868,15.8333333 67.8972356,20.5 Z"
           id="Rectangle-1-Copy-18"
           fill="#8C8C8C" />
        <g
           id="Group"
           transform="translate(20.000000, 0.000000)">
          <mask
             id="mask-16"
             fill="white">
            <use
               xlink:href="#path-15"
               id="use131" />
          </mask>
          <use
             id="Rectangle-1-Copy-16"
             fill="#BEBEBE"
             xlink:href="#path-15" />
          <path
             d="M28.9745724,5.68341871 C19.5882452,6.21937759 9.43044719,6.2347031 2.20569916e-07,5.72939524 C-2.84217094e-14,-4.13249779 -5.68434189e-14,-14.9999884 -2.84217094e-14,-14.9999964 C-5.68434189e-14,-15.0000044 28.9745715,-14.9999967 28.9745715,-14.9999965 C28.9745715,-14.9999964 28.9745712,-4.45139027 28.9745724,5.68341871 Z"
             id="Rectangle-1-Copy-21"
             fill="#A2A2A2"
             mask="url(#mask-16)" />
        </g>
        <rect
           id="Rectangle-27"
           fill="#606060"
           x="21"
           y="50"
           width="27"
           height="80"
           rx="10" />
      </g>
    </g>
  </g>
  <g
     style="fill:none;stroke:none"
     id="g3267"
     transform="translate(479.22664,810.38693)"
     inkscape:export-filename="C:\Users\Michael\Documents\Web\Automaton\img\twitter_profo.png"
     inkscape:export-xdpi="164.57144"
     inkscape:export-ydpi="164.57144">
    <g
       id="g3313"
       transform="translate(418.26161,19.110516)">
      <path
         style="fill:#ffffff"
         inkscape:connector-curvature="0"
         d="M 0.3757113,143.10872 C -0.14596973,128.74324 -0.12437904,117.66115 0.44048336,103.35638 1.7944593,69.067822 146.98704,101.34799 146.98704,101.34799 l 0,43.76912 c 0,0 -145.3401259,32.99659 -146.6113287,-2.00839"
         id="path3315"
         inkscape:export-filename="C:\Users\Michael\Documents\Web\Automaton\img\bot_logo_sm.png"
         inkscape:export-xdpi="30.379999"
         inkscape:export-ydpi="30.379999" />
      <path
         style="fill:#ffffff"
         inkscape:connector-curvature="0"
         d="m 236.61133,103.67441 c 0.52168,14.36548 0.50009,25.44757 -0.0648,39.75234 C 235.19258,177.71531 90,145.43514 90,145.43514 l 0,-43.76912 c 0,0 145.34013,-32.996592 146.61133,2.00839"
         id="path3317"
         inkscape:export-filename="C:\Users\Michael\Documents\Web\Automaton\img\bot_logo_sm.png"
         inkscape:export-xdpi="30.379999"
         inkscape:export-ydpi="30.379999" />
      <g
         id="g3319"
         transform="translate(106,0)"
         style="fill:#ffffff"
         inkscape:export-filename="C:\Users\Michael\Documents\Web\Automaton\img\bot_logo_sm.png"
         inkscape:export-xdpi="30.379999"
         inkscape:export-ydpi="30.379999">
        <rect
           style="fill:#ffffff"
           id="rect3321"
           x="7"
           y="16"
           width="9.8607655"
           height="19.759037" />
        <ellipse
           style="fill:#ffffff"
           sodipodi:ry="12.349398"
           sodipodi:rx="12.325957"
           sodipodi:cy="12.349398"
           sodipodi:cx="12.325957"
           d="m 24.651915,12.349398 c 0,6.820384 -5.518519,12.349397 -12.325958,12.349397 C 5.5185191,24.698795 0,19.169782 0,12.349398 0,5.5290137 5.5185191,0 12.325957,0 19.133396,0 24.651915,5.5290137 24.651915,12.349398 z"
           id="ellipse3323"
           cx="12.325957"
           cy="12.349398"
           rx="12.325957"
           ry="12.349398" />
      </g>
      <path
         style="fill:#ffffff"
         inkscape:connector-curvature="0"
         d="m 93.757081,35.376426 c 17.632839,-0.522673 31.235509,-0.501042 48.793839,0.06489 42.08733,1.356551 2.46519,146.825254 2.46519,146.825254 l -53.72422,0 c 0,0 -40.501517,-145.616529 2.465191,-146.890149 z"
         id="path3325"
         inkscape:export-filename="C:\Users\Michael\Documents\Web\Automaton\img\bot_logo_sm.png"
         inkscape:export-xdpi="30.379999"
         inkscape:export-ydpi="30.379999" />
      <path
         style="fill:#ffffff"
         inkscape:connector-curvature="0"
         d="m 15.244468,57.471385 c 12.325957,-18.524096 193.517532,-18.524096 205.843492,0 12.32595,18.524097 12.32595,114.849395 0,133.373495 -12.32596,18.5241 -193.517535,18.5241 -205.843492,0 -12.3259573,-18.5241 -12.3259573,-114.849398 0,-133.373495 z"
         id="path3327"
         inkscape:export-filename="C:\Users\Michael\Documents\Web\Automaton\img\bot_logo_sm.png"
         inkscape:export-xdpi="30.379999"
         inkscape:export-ydpi="30.379999" />
      <path
         style="fill:#bebebe"
         inkscape:connector-curvature="0"
         d="m 179.5148,83.801424 c -8.46176,-12.940051 -113.820293,-12.940051 -122.293969,0 -8.750177,12.94005 -22.944601,70.850456 -15.861322,83.790516 2.870245,5.10621 26.073762,4.69329 53.898955,5.76962 5.127736,-1.07633 3.335663,-7.98287 8.297616,-7.98287 l 28.15576,0 c 4.87453,0 4.54879,6.92241 9.25233,7.99113 27.92077,-1.06872 51.43981,-0.65855 54.32258,-5.77788 7.09607,-12.94006 -7.03381,-70.850466 -15.77195,-83.790516 z"
         id="path3329"
         inkscape:export-filename="C:\Users\Michael\Documents\Web\Automaton\img\bot_logo_sm.png"
         inkscape:export-xdpi="30.379999"
         inkscape:export-ydpi="30.379999" />
      <g
         id="g3331"
         style="fill:#dd1021;fill-opacity:1"
         inkscape:export-filename="C:\Users\Michael\Documents\Web\Automaton\img\bot_logo_sm.png"
         inkscape:export-xdpi="30.379999"
         inkscape:export-ydpi="30.379999">
        <use
           height="648"
           width="448"
           y="0"
           x="0"
           style="fill:#dd1021;fill-opacity:1"
           xlink:href="#path-6"
           id="use3333" />
        <use
           height="648"
           width="448"
           y="0"
           x="0"
           style="fill:#dd1021;fill-opacity:1"
           xlink:href="#path-6"
           id="use3335" />
      </g>
      <g
         id="g3337"
         inkscape:export-filename="C:\Users\Michael\Documents\Web\Automaton\img\bot_logo_sm.png"
         inkscape:export-xdpi="30.379999"
         inkscape:export-ydpi="30.379999">
        <use
           height="648"
           width="448"
           y="0"
           x="0"
           style="fill:#eff6ff"
           xlink:href="#path-8"
           id="use3339" />
        <use
           height="648"
           width="448"
           y="0"
           x="0"
           style="fill:url(#linearGradient3488)"
           xlink:href="#path-8"
           id="use3341" />
      </g>
      <rect
         style="fill:#ffffff"
         id="rect3343"
         x="92.444679"
         y="100.73494"
         width="51.76902"
         height="19.759037"
         rx="9.8795185"
         inkscape:export-filename="C:\Users\Michael\Documents\Web\Automaton\img\bot_logo_sm.png"
         inkscape:export-xdpi="30.379999"
         inkscape:export-ydpi="30.379999" />
    </g>
  </g>
  <g
     inkscape:export-ydpi="71.673592"
     inkscape:export-xdpi="71.673592"
     inkscape:export-filename="C:\Users\Michael\Documents\Web\Automaton\img\facebook_banner_4.png"
     id="g4193"
     transform="translate(-271.02353,55.499999)">
    <text
       inkscape:export-ydpi="90"
       inkscape:export-xdpi="90"
       letter-spacing="-7.96675491"
       font-weight="bold"
       font-size="144"
       id="Automaton"
       style="font-size:224.71601868px;font-weight:bold;letter-spacing:-12.43234348;fill:#dd1021;font-family:'Gotham-Bold, Gotham'"
       x="-2506.7346"
       y="85.529518">
      <tspan
         id="tspan14"
         y="313.36661"
         x="-2130.6475">Automaton</tspan>
    </text>
    <g
       style="fill:none;stroke:none"
       transform="translate(-1268,-276)"
       id="g3111"
       inkscape:export-filename="C:\Users\Michael\Documents\Web\Automaton\img\facebook_banner_2.png"
       inkscape:export-xdpi="90"
       inkscape:export-ydpi="90">
      <g
         id="g3113">
        <g
           id="g3115"
           transform="matrix(0.87461971,-0.48480962,0.48480962,0.87461971,285.93563,282.6335)">
          <path
             style="fill:#d8d8d8"
             inkscape:connector-curvature="0"
             d="M 19.5,1 C 29.705329,1 37.799369,9.28108 37.578457,19.500339 L 35.889154,97.646546 C 35.668281,107.864 28.332548,116.14689 19.5,116.14689 c -8.830607,0 -16.1682419,-8.28109 -16.3891538,-18.500344 L 1.421543,19.500339 C 1.2006701,9.282884 9.2924271,1 19.5,1 z"
             id="path3117" />
          <path
             style="fill:#bebebe"
             inkscape:connector-curvature="0"
             d="M 38.610163,17.108813 C 38.825512,7.657799 31.341397,0 21.894032,0 L 17.105968,0 C 7.6586119,0 0.1745516,7.6605728 0.38987191,17.110368 l 0.3864603,33.960643 C 0.91641402,52.881294 4.7990192,54.668503 19.5,54.668503 c 14.304082,0 18.365609,-1.692009 18.702199,-3.450947 l 0.407964,-34.108743 z"
             id="path3119" />
          <polyline
             style="stroke:#979797"
             id="polyline3121"
             points="41.9 67 41.9 39 41.9 39" />
        </g>
        <g
           id="g3123"
           transform="matrix(0.52991926,0.8480481,-0.8480481,0.52991926,147.44656,267.56748)">
          <path
             style="fill:#d8d8d8"
             inkscape:connector-curvature="0"
             d="M 19.5,1 C 29.705329,1 37.799369,9.28108 37.578457,19.500339 L 35.889154,97.646546 C 35.668281,107.864 28.332548,116.14689 19.5,116.14689 c -8.830607,0 -16.1682419,-8.28109 -16.3891538,-18.500344 L 1.421543,19.500339 C 1.2006701,9.282884 9.2924271,1 19.5,1 z"
             id="path3125" />
          <path
             style="fill:#bebebe"
             inkscape:connector-curvature="0"
             d="M 38.610163,17.108813 C 38.825512,7.657799 31.341397,0 21.894032,0 L 17.105968,0 C 7.6586119,0 0.1745516,7.6605728 0.38987191,17.110368 l 0.3864603,33.960643 C 0.91641402,52.881294 4.7990192,54.668503 19.5,54.668503 c 14.304082,0 18.365609,-1.692009 18.702199,-3.450947 l 0.407964,-34.108743 z"
             id="path3127" />
          <polyline
             style="stroke:#979797"
             id="polyline3129"
             points="41.9 67 41.9 39 41.9 39" />
        </g>
        <g
           id="g3131"
           transform="translate(139,255)">
          <path
             style="fill:#d8d8d8"
             inkscape:connector-curvature="0"
             d="M 133.47495,199.89795 C 112.74739,210.79871 53.251696,210.31765 35.866861,198.45478 33.785833,197.06993 32.2857,195.52997 31.507609,193.8349 22.742108,175.31081 2.0471416,4.9827832 12.257992,16.46141 c 9.912986,11.478627 137.321668,11.478627 147.230368,0 10.20657,-11.4786268 -10.42482,158.8494 -19.1834,177.37349 -1.05795,2.30877 -3.45275,4.32979 -6.83001,6.06305 z"
             id="path3133" />
          <path
             style="fill:#c4c2c2"
             inkscape:connector-curvature="0"
             d="m 160.86149,20.46141 c 10.40554,-11.4786268 -9.61867,149.8494 -18.66013,168.37349 -1.09237,2.30877 -3.56877,4.32979 -7.06252,6.06305 -21.4475,10.90076 -83.040933,10.4197 -101.026023,-1.44317 -2.152374,-1.38485 -3.703272,-2.92481 -4.506665,-4.61988 C 20.557661,170.31081 0.47220664,8.9827832 10.882105,20.46141 c 10.104676,11.478627 139.879065,11.478627 149.979385,0 z"
             id="path3135" />
          <g
             id="g3137"
             transform="translate(0,11)">
            <mask
               id="mask3139"
               fill="white">
              <use
                 height="648"
                 width="448"
                 y="0"
                 x="0"
                 xlink:href="#path-1"
                 id="use3141" />
            </mask>
            <use
               height="648"
               width="448"
               y="0"
               x="0"
               style="fill:#e2e2e2"
               id="use3143"
               xlink:href="#path-1" />
            <path
               style="fill:#acacac"
               inkscape:connector-curvature="0"
               d="m 34.180849,32.118181 c 1.843862,3.478626 97.531601,3.478626 105.375461,0 1.84387,-3.478627 -10.837,70.849399 -18.68086,89.373499 -7.84386,18.52409 -60.169874,18.52409 -68.013737,0 C 45.017851,102.96758 32.336986,28.639554 34.180849,32.118181 z"
               id="path3145"
               mask="url(#mask-2)" />
            <path
               style="fill:#c5c5c5"
               inkscape:connector-curvature="0"
               d="m 33.169018,28.119737 c 1.843863,1.478626 100.531602,1.478626 107.375462,0 1.84387,-3.478627 -11.837,69.849397 -19.68086,88.373493 -7.84386,18.5241 -60.169875,18.5241 -68.013737,0 C 45.006021,97.969134 31.325156,26.64111 33.169018,28.119737 z"
               id="path3147"
               mask="url(#mask-2)" />
            <path
               style="stroke:#bebebe;stroke-width:3"
               inkscape:connector-curvature="0"
               d="M -1,20 C 9.5029937,31.478627 163.897,31.478627 174.39999,20"
               id="path3149"
               mask="url(#mask-2)" />
          </g>
          <path
             style="fill:#8c8c8c"
             inkscape:connector-curvature="0"
             d="m 2.39024,12.91467 c -10.0730251,-9.21956 178.29254,-9.21956 168.21952,0 -10.07303,9.21956 -158.146495,9.21956 -168.21952,0 z"
             id="path3151" />
          <g
             id="g3153">
            <use
               height="648"
               width="448"
               y="0"
               x="0"
               style="fill:#bebebe"
               xlink:href="#path-4"
               id="use3155" />
            <use
               height="648"
               width="448"
               y="0"
               x="0"
               style="fill:url(#linearGradient4275)"
               xlink:href="#path-4"
               id="use3157" />
          </g>
        </g>
        <g
           id="g3159"
           transform="translate(106,57)">
          <path
             style="fill:#bebebe"
             inkscape:connector-curvature="0"
             d="M 0.3757113,143.10872 C -0.14596973,128.74324 -0.12437904,117.66115 0.44048336,103.35638 1.7944593,69.067822 146.98704,101.34799 146.98704,101.34799 l 0,43.76912 c 0,0 -145.3401259,32.99659 -146.6113287,-2.00839"
             id="path3161" />
          <path
             style="fill:#bebebe"
             inkscape:connector-curvature="0"
             d="m 236.61133,103.67441 c 0.52168,14.36548 0.50009,25.44757 -0.0648,39.75234 C 235.19258,177.71531 90,145.43514 90,145.43514 l 0,-43.76912 c 0,0 145.34013,-32.996592 146.61133,2.00839"
             id="path3163" />
          <g
             id="g3165"
             transform="translate(106,0)">
            <rect
               style="fill:#d8d8d8"
               id="rect3167"
               x="7"
               y="16"
               width="9.8607655"
               height="19.759037" />
            <ellipse
               style="fill:#dd1021"
               sodipodi:ry="12.349398"
               sodipodi:rx="12.325957"
               sodipodi:cy="12.349398"
               sodipodi:cx="12.325957"
               d="m 24.651915,12.349398 c 0,6.820384 -5.518519,12.349397 -12.325958,12.349397 C 5.5185191,24.698795 0,19.169782 0,12.349398 0,5.5290137 5.5185191,0 12.325957,0 19.133396,0 24.651915,5.5290137 24.651915,12.349398 z"
               id="ellipse3169"
               cx="12.325957"
               cy="12.349398"
               rx="12.325957"
               ry="12.349398" />
          </g>
          <path
             style="fill:#bebebe"
             inkscape:connector-curvature="0"
             d="m 93.757081,35.376426 c 17.632839,-0.522673 31.235509,-0.501042 48.793839,0.06489 42.08733,1.356551 2.46519,146.825254 2.46519,146.825254 l -53.72422,0 c 0,0 -40.501517,-145.616529 2.465191,-146.890149 z"
             id="path3171" />
          <path
             style="fill:#e1e1e1"
             inkscape:connector-curvature="0"
             d="m 15.244468,57.471385 c 12.325957,-18.524096 193.517532,-18.524096 205.843492,0 12.32595,18.524097 12.32595,114.849395 0,133.373495 -12.32596,18.5241 -193.517535,18.5241 -205.843492,0 -12.3259573,-18.5241 -12.3259573,-114.849398 0,-133.373495 z"
             id="path3173" />
          <path
             style="fill:#bebebe"
             inkscape:connector-curvature="0"
             d="m 179.5148,83.801424 c -8.46176,-12.940051 -113.820293,-12.940051 -122.293969,0 -8.750177,12.94005 -22.944601,70.850456 -15.861322,83.790516 2.870245,5.10621 26.073762,4.69329 53.898955,5.76962 5.127736,-1.07633 3.335663,-7.98287 8.297616,-7.98287 l 28.15576,0 c 4.87453,0 4.54879,6.92241 9.25233,7.99113 27.92077,-1.06872 51.43981,-0.65855 54.32258,-5.77788 7.09607,-12.94006 -7.03381,-70.850466 -15.77195,-83.790516 z"
             id="path3175" />
          <g
             id="g3177">
            <use
               height="648"
               width="448"
               y="0"
               x="0"
               style="fill:#e2efff"
               xlink:href="#path-6"
               id="use3179" />
            <use
               height="648"
               width="448"
               y="0"
               x="0"
               style="fill:url(#linearGradient4277)"
               xlink:href="#path-6"
               id="use3181" />
          </g>
          <g
             id="g3183">
            <use
               height="648"
               width="448"
               y="0"
               x="0"
               style="fill:#eff6ff"
               xlink:href="#path-8"
               id="use3185" />
            <use
               height="648"
               width="448"
               y="0"
               x="0"
               style="fill:url(#linearGradient4279)"
               xlink:href="#path-8"
               id="use3187" />
          </g>
          <rect
             style="fill:#b3d3ff"
             id="rect3189"
             x="92.444679"
             y="100.73494"
             width="51.76902"
             height="19.759037"
             rx="9.8795185" />
        </g>
        <g
           id="g3191"
           transform="matrix(0.69465837,0.7193398,-0.7193398,0.69465837,340.09437,323)">
          <polygon
             style="fill:#d8d8d8"
             id="polygon3193"
             points="16,20 50.949127,20 47.113681,94.079862 18.936352,94.079862 " />
          <path
             style="fill:#bebebe"
             inkscape:connector-curvature="0"
             d="m 16.887222,62.912724 -0.354368,-3.91e-4 -1.457443,-42.72529 C 15.025498,19.633063 15,19.072044 15,18.505069 c 0,-0.134595 0.0014,-0.268856 0.0043,-0.402766 L 15,17.976353 l 0.0074,0 C 15.287276,8.0007855 23.461831,0 33.505069,0 c 10.220068,0 18.50507,8.2850018 18.50507,18.505069 0,0.924228 -0.06776,1.832632 -0.19857,2.720513 l -1.859075,41.723667 -0.657432,-7.27e-4 c -0.0602,-2.574252 -7.198067,-4.655629 -15.99439,-4.655629 -8.755511,0 -16.280969,2.062108 -16.41345,4.619831 z"
             id="path3195" />
          <path
             style="fill:#dd1021"
             inkscape:connector-curvature="0"
             d="m 33,89.765276 c -7.731987,0 -14,1.895951 -14,4.234724 0,2.338773 6.268013,4.234724 14,4.234724 7.731986,0 14,-1.895951 14,-4.234724 0,-2.338773 -6.268014,-4.234724 -14,-4.234724 z"
             id="path3197" />
          <use
             height="648"
             width="448"
             y="0"
             x="0"
             style="stroke:#979797;stroke-width:2"
             id="use3199"
             mask="url(#mask-10)"
             xlink:href="#path-9" />
          <path
             style="fill:#d8d8d8"
             inkscape:connector-curvature="0"
             d="m 33,92 c -7.731987,0 -14,1.89595 -14,4.234724 0,2.338773 6.268013,4.234726 14,4.234726 7.731986,0 14,-1.895953 14,-4.234726 C 47,93.89595 40.731986,92 33,92 z"
             id="path3201" />
          <path
             style="fill:#bebebe"
             inkscape:connector-curvature="0"
             d="M 34,154.75189 C 45.873029,153.05358 55,142.84265 55,130.5 55,116.96902 44.030976,106 30.5,106 16.969024,106 6,116.96902 6,130.5 c 0,12.34265 9.126971,22.55358 21,24.25189 l 0,-8.12385 C 19.568476,145.0229 14,138.41174 14,130.5 14,121.3873 21.387302,114 30.5,114 c 9.112698,0 16.5,7.3873 16.5,16.5 0,7.91174 -5.568476,14.5229 -13,16.12804 l 0,8.12385 z"
             id="path3203"
             transform="matrix(0.9781476,0.20791169,-0.20791169,0.9781476,27.773181,-3.4922794)" />
          <path
             style="fill:#d8d8d8"
             inkscape:connector-curvature="0"
             d="M 33,154.75189 C 44.873029,153.05358 54,142.84265 54,130.5 54,116.96902 43.030976,106 29.5,106 15.969024,106 5,116.96902 5,130.5 c 0,12.34265 9.126971,22.55358 21,24.25189 l 0,-8.12385 C 18.568476,145.0229 13,138.41174 13,130.5 13,121.3873 20.387302,114 29.5,114 c 9.112698,0 16.5,7.3873 16.5,16.5 0,7.91174 -5.568476,14.5229 -13,16.12804 l 0,8.12385 z"
             id="path3205"
             transform="matrix(0.9781476,0.20791169,-0.20791169,0.9781476,27.751329,-3.2843677)" />
          <path
             style="fill:#979797"
             inkscape:connector-curvature="0"
             d="m 31.503514,117 c 0,0 0,1.11701 1.458977,1.11701 1.458978,0 1.458978,-1.11701 1.458978,-1.11701 0,0 1.494711,-20.368899 1.503272,-20.485556 C 35.94559,96.230324 34.619346,96 32.962492,96 31.305637,96 29.979393,96.230324 30.000242,96.514444 30.021092,96.798563 31.503514,117 31.503514,117 z"
             id="path3207" />
        </g>
        <g
           id="g3209"
           transform="matrix(-0.99939083,0.0348995,-0.0348995,-0.99939083,107.54737,352.90253)">
          <polygon
             style="fill:#d8d8d8"
             id="polygon3211"
             points="16,20 50.949127,20 47.113681,94.079862 18.936352,94.079862 " />
          <path
             style="fill:#bebebe"
             inkscape:connector-curvature="0"
             d="m 16.887222,62.912724 -0.354368,-3.91e-4 -1.457443,-42.72529 C 15.025498,19.633063 15,19.072044 15,18.505069 c 0,-0.134595 0.0014,-0.268856 0.0043,-0.402766 L 15,17.976353 l 0.0074,0 C 15.287276,8.0007855 23.461831,0 33.505069,0 c 10.220068,0 18.50507,8.2850018 18.50507,18.505069 0,0.924228 -0.06776,1.832632 -0.19857,2.720513 l -1.859075,41.723667 -0.657432,-7.27e-4 c -0.0602,-2.574252 -7.198067,-4.655629 -15.99439,-4.655629 -8.755511,0 -16.280969,2.062108 -16.41345,4.619831 z"
             id="path3213" />
          <path
             style="fill:#dd1021"
             inkscape:connector-curvature="0"
             d="m 33,89.765276 c -7.731987,0 -14,1.895951 -14,4.234724 0,2.338773 6.268013,4.234724 14,4.234724 7.731986,0 14,-1.895951 14,-4.234724 0,-2.338773 -6.268014,-4.234724 -14,-4.234724 z"
             id="path3215" />
          <use
             height="648"
             width="448"
             y="0"
             x="0"
             style="stroke:#979797;stroke-width:2"
             id="use3217"
             mask="url(#mask-12)"
             xlink:href="#path-11" />
          <path
             style="fill:#d8d8d8"
             inkscape:connector-curvature="0"
             d="m 33,92 c -7.731987,0 -14,1.89595 -14,4.234724 0,2.338773 6.268013,4.234726 14,4.234726 7.731986,0 14,-1.895953 14,-4.234726 C 47,93.89595 40.731986,92 33,92 z"
             id="path3219" />
          <path
             style="fill:#bebebe"
             inkscape:connector-curvature="0"
             d="M 34,154.75189 C 45.873029,153.05358 55,142.84265 55,130.5 55,116.96902 44.030976,106 30.5,106 16.969024,106 6,116.96902 6,130.5 c 0,12.34265 9.126971,22.55358 21,24.25189 l 0,-8.12385 C 19.568476,145.0229 14,138.41174 14,130.5 14,121.3873 21.387302,114 30.5,114 c 9.112698,0 16.5,7.3873 16.5,16.5 0,7.91174 -5.568476,14.5229 -13,16.12804 l 0,8.12385 z"
             id="path3221"
             transform="matrix(0.9781476,0.20791169,-0.20791169,0.9781476,27.773181,-3.4922794)" />
          <path
             style="fill:#d8d8d8"
             inkscape:connector-curvature="0"
             d="M 33,154.75189 C 44.873029,153.05358 54,142.84265 54,130.5 54,116.96902 43.030976,106 29.5,106 15.969024,106 5,116.96902 5,130.5 c 0,12.34265 9.126971,22.55358 21,24.25189 l 0,-8.12385 C 18.568476,145.0229 13,138.41174 13,130.5 13,121.3873 20.387302,114 29.5,114 c 9.112698,0 16.5,7.3873 16.5,16.5 0,7.91174 -5.568476,14.5229 -13,16.12804 l 0,8.12385 z"
             id="path3223"
             transform="matrix(0.9781476,0.20791169,-0.20791169,0.9781476,27.751329,-3.2843677)" />
          <path
             style="fill:#979797"
             inkscape:connector-curvature="0"
             d="m 31.503514,117 c 0,0 0,1.11701 1.458977,1.11701 1.458978,0 1.458978,-1.11701 1.458978,-1.11701 0,0 1.494711,-20.368899 1.503272,-20.485556 C 35.94559,96.230324 34.619346,96 32.962492,96 31.305637,96 29.979393,96.230324 30.000242,96.514444 30.021092,96.798563 31.503514,117 31.503514,117 z"
             id="path3225" />
        </g>
        <g
           id="g3227"
           transform="translate(190,462)">
          <rect
             style="fill:#bebebe"
             id="rect3229"
             x="16"
             y="88"
             width="37"
             height="4" />
          <g
             id="g3231"
             transform="translate(0,20)">
            <mask
               id="mask3233"
               fill="white">
              <use
                 height="648"
                 width="448"
                 y="0"
                 x="0"
                 xlink:href="#path-13"
                 id="use3235" />
            </mask>
            <use
               height="648"
               width="448"
               y="0"
               x="0"
               style="fill:#d8d8d8"
               id="use3237"
               xlink:href="#path-13" />
            <path
               style="stroke:#bebebe;stroke-width:3"
               inkscape:connector-curvature="0"
               d="M 68.739998,13 C 64.56395,17.666667 3.1760478,17.666667 -1,13"
               id="path3239"
               mask="url(#mask-14)" />
          </g>
          <path
             style="fill:#8c8c8c"
             inkscape:connector-curvature="0"
             d="m 67.897236,20.5 c -3.996552,4.666667 -62.745854,4.666667 -66.7424052,0 -3.9965512,-4.666667 70.7389562,-4.666667 66.7424052,0 z"
             id="path3241" />
          <g
             id="g3243"
             transform="translate(20,0)">
            <mask
               id="mask3245"
               fill="white">
              <use
                 height="648"
                 width="448"
                 y="0"
                 x="0"
                 xlink:href="#path-15"
                 id="use3247" />
            </mask>
            <use
               height="648"
               width="448"
               y="0"
               x="0"
               style="fill:#bebebe"
               id="use3249"
               xlink:href="#path-15" />
            <path
               style="fill:#a2a2a2"
               inkscape:connector-curvature="0"
               d="M 28.974572,5.6834187 C 19.588245,6.2193776 9.4304472,6.2347031 2.2056992e-7,5.7293952 0,-4.1324978 0,-14.999988 0,-14.999996 c 0,-8e-6 28.974571,-1e-6 28.974571,-1e-6 0,1e-6 0,10.5486067 10e-7,20.6834157 z"
               id="path3251"
               mask="url(#mask-16)" />
          </g>
          <rect
             style="fill:#606060"
             id="rect3253"
             x="21"
             y="50"
             width="27"
             height="80"
             rx="10" />
        </g>
      </g>
    </g>
  </g>
</svg>
